<svg width="10" height="16" viewBox="0 0 10 16" fill="none" xmlns="http://www.w3.org/2000/svg">
<path d="M6.85257 8L0.398077 2.06233C0.273538 1.95168 0.174201 1.81932 0.105863 1.67297C0.0375245 1.52663 0.00155374 1.36922 4.92325e-05 1.20995C-0.00145527 1.05068 0.0315366 0.892725 0.0970998 0.745308C0.162663 0.59789 0.259484 0.46396 0.381915 0.351333C0.504345 0.238706 0.649932 0.149637 0.810181 0.089323C0.970431 0.0290098 1.14213 -0.00133896 1.31527 4.48227e-05C1.4884 0.0014286 1.65951 0.0345192 1.81859 0.0973854C1.97768 0.160251 2.12156 0.251634 2.24185 0.3662L9.61822 7.15193C9.86267 7.37688 10 7.68193 10 8C10 8.31807 9.86267 8.62312 9.61822 8.84807L2.24185 15.6338C2.12156 15.7484 1.97768 15.8397 1.81859 15.9026C1.65951 15.9655 1.4884 15.9986 1.31527 16C1.14213 16.0013 0.970431 15.971 0.810181 15.9107C0.649932 15.8504 0.504345 15.7613 0.381915 15.6487C0.259484 15.536 0.162663 15.4021 0.0970998 15.2547C0.0315366 15.1073 -0.00145527 14.9493 4.92325e-05 14.79C0.00155374 14.6308 0.0375245 14.4734 0.105863 14.327C0.174201 14.1807 0.273538 14.0483 0.398077 13.9377L6.85257 8Z" fill="black"/>
</svg>
