<svg width="20" height="24" viewBox="0 0 20 24" fill="none" xmlns="http://www.w3.org/2000/svg">
<g clip-path="url(#clip0_370_3239)">
<path d="M0.552213 5.93412H1.35421C1.35421 5.53312 1.38337 4.69467 1.70417 4.4322C2.25828 3.98017 5.51729 4.38116 5.65582 4.23535C5.57562 2.73343 6.59634 0.990909 8.20033 0.83051C9.05336 0.74302 11.0584 0.74302 11.9041 0.83051C13.3987 0.9982 14.5653 2.77717 14.3538 4.22805C14.4851 4.35929 17.416 4.10411 18.0357 4.29367C18.7867 4.52698 18.6627 5.29252 18.6481 5.92683H19.5522V7.6256L17.7514 7.72767V21.2741C17.7514 21.7772 16.4973 23.0895 15.8922 23.1187C12.1884 22.8854 8.04722 23.4541 4.3945 23.126C3.62896 23.0604 2.98736 22.5646 2.60095 21.9157C2.54262 21.8136 2.24369 21.2158 2.24369 21.172V7.73496L0.544922 7.63289V5.93412H0.552213ZM12.553 4.23535C12.6478 3.13442 12.1957 2.60948 11.1094 2.52928C10.4824 2.48554 8.74715 2.44908 8.2295 2.66052C7.62435 2.90841 7.42021 3.62291 7.44937 4.23535H12.553ZM16.0526 7.73496H3.94976C4.00808 12.1095 3.82581 16.5059 4.05912 20.8731C4.12474 21.4418 4.73717 21.471 5.1965 21.5293C8.32428 21.3397 11.7145 21.7699 14.8059 21.5293C15.1631 21.5001 16.0526 21.347 16.0526 20.8731V7.73496Z" fill="#535B67"/>
<path d="M7.44877 9.43384H5.75V19.7285H7.44877V9.43384Z" fill="#535B67"/>
<path d="M10.8531 9.43384H9.1543V19.7285H10.8531V9.43384Z" fill="#535B67"/>
<path d="M14.3531 9.43384H12.6543V19.7285H14.3531V9.43384Z" fill="#535B67"/>
</g>
<defs>
<clipPath id="clip0_370_3239">
<rect width="19" height="22.4705" fill="white" transform="translate(0.550781 0.764893)"/>
</clipPath>
</defs>
</svg>
