<svg width="61" height="60" viewBox="0 0 61 60" fill="none" xmlns="http://www.w3.org/2000/svg">
<path d="M51.8209 54.84C50.7478 54.84 49.7498 54.4694 49.0108 53.7964L27.151 32.786C26.799 32.4476 26.5142 32.0308 26.3045 31.5469C26.0938 31.0609 25.9824 30.5514 25.9824 30.0733C25.9824 29.5982 26.0872 29.1054 26.3027 28.5668C26.5142 28.0787 26.7991 27.6619 27.151 27.3235L49.0076 6.31602C49.3975 5.94129 49.8425 5.64754 50.2944 5.46651C50.8568 5.25857 51.3675 5.1582 51.8595 5.1582C52.2646 5.1582 52.8648 5.20524 53.4246 5.42939C53.8552 5.60187 54.2867 5.87792 54.7438 6.27328C55.079 6.59519 55.3718 7.0365 55.5966 7.55507C55.8147 7.97366 55.9186 8.45692 55.9186 9.06582C55.9186 9.54387 55.8072 10.0534 55.5966 10.5394C55.4052 10.981 55.0943 11.4103 54.6727 11.8156L35.6777 30.0727L39.1871 33.4099L54.6729 48.3312C55.4175 49.0866 55.804 50.0511 55.764 51.0501C55.7641 52.0593 55.36 52.9844 54.5955 53.7193C53.8544 54.4315 52.8431 54.84 51.8209 54.84Z" fill="#FF0000"/>
<path d="M51.8216 54.682C52.8256 54.682 53.791 54.2737 54.4861 53.6056C55.2198 52.9005 55.6059 52.0097 55.6059 51.0447C55.6445 50.0797 55.2584 49.1517 54.5633 48.4466L39.0783 33.526L35.4484 30.0743L54.5633 11.702C54.9495 11.3308 55.2584 10.9226 55.4515 10.4771C55.6445 10.0318 55.7604 9.54927 55.7604 9.06677C55.7604 8.54714 55.6832 8.06464 55.4515 7.61923C55.2584 7.17385 54.9881 6.72847 54.6405 6.39442C54.2544 6.0604 53.8296 5.76347 53.3662 5.57787C52.9028 5.3923 52.3622 5.31806 51.8602 5.31806C51.3582 5.31806 50.8562 5.42942 50.3542 5.61499C49.8908 5.80059 49.466 6.09749 49.1184 6.43154L27.2619 27.439C26.9143 27.7731 26.644 28.1814 26.4509 28.6267C26.2579 29.1093 26.142 29.5918 26.142 30.0743C26.142 30.5568 26.2579 31.0393 26.4509 31.4847C26.644 31.9301 26.9143 32.3383 27.2619 32.6724L49.1184 53.6799C49.8522 54.348 50.8176 54.682 51.8216 54.682ZM51.8216 54.9998C50.7088 54.9998 49.6729 54.6145 48.9045 53.9149L27.0416 32.9015C26.6744 32.5485 26.3775 32.1143 26.1594 31.6111C25.937 31.0981 25.8242 30.581 25.8242 30.0743C25.8242 29.5786 25.9327 29.0664 26.1559 28.5087C26.3776 27.9971 26.6744 27.5629 27.0416 27.2099L48.8982 6.2024C49.3027 5.81365 49.7653 5.50849 50.236 5.31996C50.8204 5.10382 51.349 5.00024 51.8602 5.00024C52.2792 5.00024 52.9011 5.04928 53.4844 5.28284C53.9316 5.46196 54.3778 5.74694 54.8485 6.15406L54.8608 6.16531C55.2027 6.49388 55.506 6.94913 55.7385 7.48238C55.9702 7.93211 56.0782 8.43591 56.0782 9.06677C56.0782 9.57352 55.9654 10.0906 55.7431 10.6035C55.5432 11.0646 55.2204 11.5112 54.7836 11.9311L35.9084 30.073L39.2973 33.2957L54.7838 48.2177C55.5626 49.0076 55.9652 50.014 55.9235 51.0574C55.9237 52.1045 55.5028 53.0693 54.7063 53.8348C53.936 54.5752 52.8845 54.9998 51.8216 54.9998Z" fill="#FF0000"/>
<path d="M9.75727 5.15807C10.8303 5.15807 11.8283 5.52867 12.5674 6.2016L34.4271 27.212C34.7791 27.5504 35.0639 27.9673 35.2737 28.4511C35.4843 28.9371 35.5957 29.4467 35.5957 29.9247C35.5957 30.3998 35.491 30.8926 35.2754 31.4313C35.0639 31.9193 34.7791 32.3362 34.4271 32.6745L12.5705 53.682C12.1806 54.0568 11.7357 54.3505 11.2837 54.5315C10.7213 54.7395 10.2107 54.8398 9.71862 54.8398C9.31357 54.8398 8.71329 54.7928 8.15353 54.5687C7.72296 54.3962 7.29144 54.1201 6.83433 53.7248C6.49913 53.4029 6.20637 52.9615 5.98154 52.443C5.7634 52.0244 5.65954 51.5411 5.65954 50.9322C5.65954 50.4542 5.7709 49.9446 5.98154 49.4586C6.17296 49.0171 6.48378 48.5877 6.90539 48.1825L25.9005 29.9253L22.391 26.5881L6.90526 11.6669C6.16063 10.9115 5.77414 9.94691 5.81412 8.94797C5.81399 7.93879 6.21812 7.01361 6.98265 6.27877C7.72369 5.56656 8.735 5.15807 9.75727 5.15807Z" fill="#FF0000"/>
<path d="M9.75657 5.3175C8.75254 5.3175 7.78716 5.72579 7.09207 6.39386C6.35837 7.09905 5.9722 7.98985 5.9722 8.95485C5.93359 9.91985 6.31973 10.8478 7.01481 11.553L22.4998 26.4735L26.1297 29.9252L7.01481 48.2976C6.62867 48.6687 6.31973 49.077 6.12666 49.5224C5.93359 49.9677 5.81774 50.4502 5.81774 50.9327C5.81774 51.4524 5.89497 51.9349 6.12666 52.3803C6.31973 52.8257 6.59006 53.271 6.93758 53.6051C7.32376 53.9391 7.74854 54.236 8.21191 54.4216C8.67531 54.6072 9.21594 54.6815 9.71792 54.6815C10.2199 54.6815 10.722 54.5701 11.224 54.3845C11.6873 54.1989 12.1121 53.902 12.4597 53.568L34.3163 32.5605C34.6638 32.2264 34.9341 31.8182 35.1272 31.3728C35.3203 30.8902 35.4361 30.4077 35.4361 29.9252C35.4361 29.4427 35.3203 28.9602 35.1272 28.5149C34.9341 28.0694 34.6638 27.6612 34.3163 27.3271L12.4597 6.31962C11.7259 5.65155 10.7606 5.3175 9.75657 5.3175ZM9.75657 4.99969C10.8693 4.99969 11.9053 5.385 12.6736 6.08463L34.5365 27.098C34.9038 27.451 35.2006 27.8852 35.4188 28.3884C35.6411 28.9014 35.7539 29.4185 35.7539 29.9252C35.7539 30.421 35.6454 30.9331 35.4222 31.4908C35.2006 32.0024 34.9037 32.4366 34.5365 32.7896L12.6799 53.7971C12.2754 54.1859 11.8128 54.491 11.3421 54.6795C10.7577 54.8957 10.2291 54.9993 9.71792 54.9993C9.29892 54.9993 8.677 54.9502 8.09375 54.7167C7.64653 54.5376 7.20035 54.2526 6.72967 53.8455L6.71734 53.8342C6.37547 53.5056 6.07215 53.0504 5.83961 52.5171C5.60789 52.0674 5.49993 51.5636 5.49993 50.9327C5.49993 50.426 5.61269 49.9089 5.83506 49.396C6.0349 48.935 6.35771 48.4883 6.79457 48.0684L25.6698 29.9265L22.2808 26.7038L6.79428 11.7818C6.01555 10.9919 5.61288 9.98548 5.65464 8.94213C5.65439 7.89505 6.07536 6.93023 6.87183 6.16472C7.64217 5.42432 8.69362 4.99969 9.75657 4.99969Z" fill="#FF0000"/>
</svg>
