<svg width="48" height="45" viewBox="0 0 48 45" fill="none" xmlns="http://www.w3.org/2000/svg">
<path d="M34.2477 12.1849C34.2477 18.7802 28.9007 24.1272 22.3053 24.1272C15.71 24.1272 10.363 18.7802 10.363 12.1849C10.363 5.58954 15.7086 0.242554 22.304 0.242554C28.8993 0.242554 34.2463 5.58954 34.2463 12.1849H34.2477ZM30.9921 12.1876C30.9921 7.39001 27.1029 3.50079 22.3053 3.50079C17.5077 3.50079 13.6185 7.39001 13.6185 12.1876C13.6185 16.9852 17.5077 20.8744 22.3053 20.8744C27.1029 20.8744 30.9921 16.9852 30.9921 12.1876Z" fill="#E72E68"/>
<path d="M20.7238 26.0202C22.2809 25.9576 23.9304 25.9753 25.4766 26.0936C26.2 26.1494 27.7244 26.2487 28.3513 26.4757C29.5521 26.9109 29.7044 28.6203 28.6342 29.3505C27.8645 29.8754 27.2022 29.5096 26.3931 29.4525C19.9256 28.9956 9.40159 29.6075 4.71005 34.7437C2.84568 36.7849 3.37875 38.7241 3.35427 41.2942L3.56505 41.49L26.9969 41.5716C28.9796 42.2094 28.539 44.7605 26.4978 44.8258H3.79215C2.01616 44.7823 0.267375 43.4469 0.082433 41.6151C-0.0780311 40.0254 -0.0385951 36.9018 0.51215 35.4318C3.0687 28.6107 14.3121 26.2786 20.7238 26.0216V26.0202Z" fill="#E72E68"/>
<path d="M48 35.406C48 40.3396 44.0006 44.3376 39.0684 44.3376C34.1361 44.3376 30.1368 40.3382 30.1368 35.406C30.1368 30.4737 34.1361 26.4744 39.0684 26.4744C44.0006 26.4744 48 30.4737 48 35.406ZM42.5564 30.0331C40.3249 28.6923 37.6283 28.676 35.4579 30.1555C32.5886 32.1124 31.8992 35.9485 33.6955 38.894L42.5564 30.0331ZM44.4398 31.9165L35.579 40.7774C37.8105 42.1183 40.5071 42.1346 42.6775 40.655C45.5468 38.6982 46.2362 34.862 44.4398 31.9165Z" fill="#E72E68"/>
</svg>
