<svg width="139" height="50" viewBox="0 0 139 50" fill="none" xmlns="http://www.w3.org/2000/svg">
<path d="M71.9295 31.9819C71.9295 32.4637 71.4961 32.8971 71.0143 32.8971C70.5808 32.8971 70.2915 32.6562 70.099 32.2712L68.8224 29.4051H60.6585L59.4539 32.2712C59.2851 32.6562 58.9721 32.8971 58.5624 32.8971C58.0569 32.8971 57.6472 32.4637 57.6472 31.9819C57.6472 31.8131 57.6955 31.6206 57.7913 31.3797L63.8839 17.1231C64.0764 16.6896 64.3657 16.4724 64.7755 16.4724C65.1852 16.4724 65.4735 16.6886 65.667 17.1231L71.7596 31.3797C71.8801 31.6206 71.9285 31.8131 71.9285 31.9819H71.9295ZM61.3575 27.7198H68.1008L64.7775 19.2912L61.3575 27.7198Z" fill="black"/>
<path d="M75.9034 24.685C75.9034 20.0615 79.5159 16.4727 84.1641 16.4727C86.6442 16.4727 89.1006 17.6288 90.4256 19.4109C90.6181 19.6754 90.7149 19.868 90.7149 20.1089C90.7149 20.5423 90.3298 20.952 89.8233 20.952C89.5104 20.952 89.2695 20.8553 88.9565 20.4949C87.5111 18.9054 86.0903 18.2074 84.1641 18.2074C80.5279 18.2074 77.8543 20.9531 77.8543 24.6613C77.8543 28.3696 80.5753 31.2121 84.2599 31.2121C86.4754 31.2121 88.4263 30.2011 89.5577 28.5148V26.2272H85.03C84.4761 26.2272 84.0427 25.8422 84.0427 25.3841C84.0427 24.9022 84.4761 24.5409 85.03 24.5409H90.4482C91.0021 24.5409 91.4355 24.9506 91.4355 25.5282V28.105C91.4355 28.5868 91.3151 28.9966 91.0505 29.4053C89.5814 31.5724 86.9325 32.8974 84.1631 32.8974C79.5149 32.8974 75.9024 29.3096 75.9024 24.685H75.9034Z" fill="black"/>
<path d="M97.313 31.9101V17.46C97.313 16.9061 97.698 16.4727 98.2519 16.4727C98.8057 16.4727 99.1908 16.9061 99.1908 17.46V31.9101C99.1908 32.464 98.781 32.8974 98.2519 32.8974C97.7227 32.8974 97.313 32.464 97.313 31.9101Z" fill="black"/>
<path d="M105.959 31.6455V17.46C105.959 16.9061 106.344 16.4727 106.898 16.4727C107.452 16.4727 107.837 16.9061 107.837 17.46V30.9465H114.604C115.109 30.9465 115.47 31.3078 115.47 31.7896C115.47 32.2714 115.109 32.6328 114.604 32.6328H106.945C106.368 32.6328 105.958 32.1994 105.958 31.6455H105.959Z" fill="black"/>
<path d="M120.553 31.9101V17.46C120.553 16.9061 120.938 16.4727 121.492 16.4727C122.046 16.4727 122.431 16.9061 122.431 17.46V31.9101C122.431 32.464 122.021 32.8974 121.492 32.8974C120.963 32.8974 120.553 32.464 120.553 31.9101Z" fill="black"/>
<path d="M128.476 30.1764C128.332 30.0075 128.259 29.815 128.259 29.5988C128.259 29.117 128.669 28.732 129.15 28.732C129.44 28.732 129.681 28.8524 129.873 29.0933C130.932 30.442 132.281 31.1647 133.823 31.1647C135.75 31.1647 137.026 30.0806 137.026 28.5158C137.026 27.3359 136.424 26.6853 134.377 25.7217L132.595 24.8785C130.067 23.674 129.006 22.3984 129.006 20.6164C129.006 18.232 131.053 16.4736 133.799 16.4736C135.581 16.4736 137.075 17.148 138.181 18.3762C138.446 18.6655 138.519 18.93 138.519 19.1473C138.519 19.5807 138.085 19.9904 137.627 19.9904C137.386 19.9904 137.17 19.87 136.977 19.6775C136.11 18.7138 135.002 18.2084 133.774 18.2084C132.088 18.2084 130.956 19.1236 130.956 20.5206C130.956 21.652 131.462 22.2059 133.509 23.1942L135.268 24.0374C137.941 25.314 138.976 26.5659 138.976 28.4684C138.976 31.0689 136.881 32.8994 133.846 32.8994C131.799 32.8994 129.728 31.8637 128.475 30.1784L128.476 30.1764Z" fill="black"/>
<path d="M39.4723 4.86548H10.5288C7.401 4.86548 4.86545 7.40103 4.86545 10.5288V39.4723C4.86545 42.6001 7.401 45.1356 10.5288 45.1356H39.4723C42.6 45.1356 45.1356 42.6001 45.1356 39.4723V10.5288C45.1356 7.40103 42.6 4.86548 39.4723 4.86548Z" fill="url(#paint0_linear_194_2052)"/>
<path d="M50 9.55793V9.55278C50 8.24325 49.7323 6.98108 49.2474 5.83627C48.5196 4.11699 47.312 2.66436 45.7883 1.63485C45.0265 1.1201 44.1833 0.710359 43.2825 0.430333C42.3837 0.150308 41.4273 0 40.4462 0H40.4431C40.4421 0 40.441 0 40.438 0H9.55587C8.24531 0 6.98211 0.267671 5.83627 0.752569C4.11699 1.48043 2.66436 2.68804 1.63485 4.21171C1.1201 4.97354 0.710359 5.81671 0.430333 6.71752C0.150308 7.61731 0 8.57372 0 9.55484V9.55587V9.55793V40.4452C0 41.7557 0.267671 43.0189 0.752569 44.1637C1.48043 45.883 2.68804 47.3356 4.21171 48.3651C4.97354 48.8799 5.81671 49.2896 6.71752 49.5697C7.59775 49.8435 8.53254 49.9918 9.49204 49.999H9.50337L40.4421 50H40.4513C41.7588 49.999 43.02 49.7313 44.1637 49.2474C45.883 48.5196 47.3356 47.312 48.3651 45.7883C48.8799 45.0265 49.2896 44.1833 49.5697 43.2825C49.8466 42.393 49.9959 41.4489 49.999 40.4791V40.4627V9.55793H50ZM46.7272 44.6816C45.9098 45.8912 44.7557 46.8497 43.3926 47.4262C42.4867 47.8102 41.485 48.0223 40.4441 48.0223H40.441H9.55793H9.55587C8.77551 48.0223 8.01573 47.9029 7.30331 47.6815C6.58987 47.4592 5.92172 47.1359 5.3174 46.7272C4.10773 45.9098 3.14926 44.7557 2.57273 43.3926C2.18873 42.4867 1.97665 41.485 1.97665 40.4441V9.55587C1.97665 8.77551 2.09607 8.01676 2.31742 7.30434C2.53979 6.59089 2.86305 5.92275 3.27177 5.31843C4.0892 4.10876 5.24224 3.15029 6.60634 2.57376C7.5123 2.18976 8.51401 1.97768 9.55381 1.97768H40.4441C41.2245 1.97768 41.9832 2.0971 42.6957 2.31845C43.4091 2.54082 44.0773 2.86408 44.6816 3.2728C45.8912 4.09023 46.8497 5.24327 47.4262 6.60737C47.8102 7.51333 48.0223 8.51504 48.0223 9.55587V9.56102V40.439C48.0223 40.439 48.0223 40.439 48.0223 40.44V40.4441C48.0223 41.2245 47.9029 41.9843 47.6815 42.6957C47.4592 43.4091 47.1359 44.0773 46.7272 44.6816Z" fill="white"/>
<path d="M50 9.55793V9.55278C50 8.24325 49.7323 6.98108 49.2474 5.83627C48.5196 4.11699 47.312 2.66436 45.7883 1.63485C45.0265 1.1201 44.1833 0.710359 43.2825 0.430333C42.3837 0.150308 41.4273 0 40.4462 0H40.4431C40.4421 0 40.441 0 40.438 0H9.55587C8.24531 0 6.98211 0.267671 5.83627 0.752569C4.11699 1.48043 2.66436 2.68804 1.63485 4.21171C1.1201 4.97354 0.710359 5.81671 0.430333 6.71752C0.150308 7.61731 0 8.57372 0 9.55484V9.55587V9.55793V40.4452C0 41.7557 0.267671 43.0189 0.752569 44.1637C1.48043 45.883 2.68804 47.3356 4.21171 48.3651C4.97354 48.8799 5.81671 49.2896 6.71752 49.5697C7.59775 49.8435 8.53254 49.9918 9.49204 49.999H9.50337L40.4421 50H40.4513C41.7588 49.999 43.02 49.7313 44.1637 49.2474C45.883 48.5196 47.3356 47.312 48.3651 45.7883C48.8799 45.0265 49.2896 44.1833 49.5697 43.2825C49.8466 42.393 49.9959 41.4489 49.999 40.4791V40.4627V9.55793H50ZM46.7272 44.6816C45.9098 45.8912 44.7557 46.8497 43.3926 47.4262C42.4867 47.8102 41.485 48.0223 40.4441 48.0223H40.441H9.55793H9.55587C8.77551 48.0223 8.01573 47.9029 7.30331 47.6815C6.58987 47.4592 5.92172 47.1359 5.3174 46.7272C4.10773 45.9098 3.14926 44.7557 2.57273 43.3926C2.18873 42.4867 1.97665 41.485 1.97665 40.4441V9.55587C1.97665 8.77551 2.09607 8.01676 2.31742 7.30434C2.53979 6.59089 2.86305 5.92275 3.27177 5.31843C4.0892 4.10876 5.24224 3.15029 6.60634 2.57376C7.5123 2.18976 8.51401 1.97768 9.55381 1.97768H40.4441C41.2245 1.97768 41.9832 2.0971 42.6957 2.31845C43.4091 2.54082 44.0773 2.86408 44.6816 3.2728C45.8912 4.09023 46.8497 5.24327 47.4262 6.60737C47.8102 7.51333 48.0223 8.51504 48.0223 9.55587V9.56102V40.439C48.0223 40.439 48.0223 40.439 48.0223 40.44V40.4441C48.0223 41.2245 47.9029 41.9843 47.6815 42.6957C47.4592 43.4091 47.1359 44.0773 46.7272 44.6816Z" fill="url(#paint1_linear_194_2052)"/>
<path d="M50 9.55793V9.55278C50 8.24325 49.7323 6.98108 49.2474 5.83627C48.5196 4.11699 47.312 2.66436 45.7883 1.63485C45.0265 1.1201 44.1833 0.710359 43.2825 0.430333C42.3837 0.150308 41.4273 0 40.4462 0H40.4431C40.4421 0 40.441 0 40.438 0H9.55587C8.24531 0 6.98211 0.267671 5.83627 0.752569C4.11699 1.48043 2.66436 2.68804 1.63485 4.21171C1.1201 4.97354 0.710359 5.81671 0.430333 6.71752C0.150308 7.61731 0 8.57372 0 9.55484V9.55587V9.55793V40.4452C0 41.7557 0.267671 43.0189 0.752569 44.1637C1.48043 45.883 2.68804 47.3356 4.21171 48.3651C4.97354 48.8799 5.81671 49.2896 6.71752 49.5697C7.59775 49.8435 8.53254 49.9918 9.49204 49.999H9.50337L40.4421 50H40.4513C41.7588 49.999 43.02 49.7313 44.1637 49.2474C45.883 48.5196 47.3356 47.312 48.3651 45.7883C48.8799 45.0265 49.2896 44.1833 49.5697 43.2825C49.8466 42.393 49.9959 41.4489 49.999 40.4791V40.4627V9.55793H50ZM46.7272 44.6816C45.9098 45.8912 44.7557 46.8497 43.3926 47.4262C42.4867 47.8102 41.485 48.0223 40.4441 48.0223H40.441H9.55793H9.55587C8.77551 48.0223 8.01573 47.9029 7.30331 47.6815C6.58987 47.4592 5.92172 47.1359 5.3174 46.7272C4.10773 45.9098 3.14926 44.7557 2.57273 43.3926C2.18873 42.4867 1.97665 41.485 1.97665 40.4441V9.55587C1.97665 8.77551 2.09607 8.01676 2.31742 7.30434C2.53979 6.59089 2.86305 5.92275 3.27177 5.31843C4.0892 4.10876 5.24224 3.15029 6.60634 2.57376C7.5123 2.18976 8.51401 1.97768 9.55381 1.97768H40.4441C41.2245 1.97768 41.9832 2.0971 42.6957 2.31845C43.4091 2.54082 44.0773 2.86408 44.6816 3.2728C45.8912 4.09023 46.8497 5.24327 47.4262 6.60737C47.8102 7.51333 48.0223 8.51504 48.0223 9.55587V9.56102V40.439C48.0223 40.439 48.0223 40.439 48.0223 40.44V40.4441C48.0223 41.2245 47.9029 41.9843 47.6815 42.6957C47.4592 43.4091 47.1359 44.0773 46.7272 44.6816Z" fill="#180054"/>
<path d="M39.1758 14.5571C38.834 13.6573 38.31 12.7945 37.6027 11.9905C36.8213 11.101 35.9648 10.4432 35.0619 10.0128C34.16 9.58146 33.215 9.38276 32.2843 9.38379C31.019 9.38379 29.7888 9.74412 28.6532 10.333C27.4611 10.9528 26.3646 11.8237 25.4072 12.844C24.9769 12.3745 24.5146 11.939 24.0184 11.5499C23.2802 10.9713 22.47 10.4936 21.598 10.159C20.7271 9.82442 19.7933 9.63602 18.8235 9.63602C17.8959 9.63602 16.9374 9.81001 15.98 10.1786C15.0215 10.5471 14.0641 11.1103 13.12 11.8793C12.0082 12.7842 11.1877 13.9188 10.6575 15.1861C10.1262 16.4544 9.88019 17.8525 9.88019 19.3123C9.88328 22.2897 10.8912 25.5347 12.6907 28.6366C14.4934 31.7374 17.0981 34.6993 20.3544 37.0693C22.3815 38.5445 24.6618 39.7882 27.1563 40.6869C27.6556 40.8671 28.2064 40.6077 28.3856 40.1084C28.5657 39.609 28.3063 39.0583 27.807 38.8791C25.4937 38.0463 23.3739 36.8901 21.4848 35.5157C18.4508 33.3085 16.016 30.537 14.3513 27.6719C12.6846 24.8078 11.7982 21.8501 11.8002 19.3123C11.8002 18.0677 12.0102 16.926 12.4282 15.9284C12.8472 14.9308 13.469 14.0732 14.3318 13.369C15.1389 12.7112 15.9203 12.2602 16.6687 11.972C17.4172 11.6837 18.1317 11.5581 18.8214 11.5571C19.7809 11.5571 20.6982 11.8031 21.5692 12.2489C22.5163 12.7328 23.4007 13.4617 24.1687 14.345C23.0259 15.9366 22.192 17.7351 21.8523 19.5234C21.8101 19.7437 21.7905 19.9651 21.7905 20.1812C21.7905 21.1305 22.1756 22.0076 22.8036 22.6449C23.1176 22.964 23.4954 23.2255 23.9185 23.4067C24.3417 23.5879 24.8111 23.6888 25.3001 23.6888C25.7891 23.6888 26.2596 23.5879 26.6817 23.4067C27.3169 23.1339 27.8471 22.684 28.2198 22.125C28.5925 21.5659 28.8097 20.8937 28.8097 20.1823C28.8097 19.965 28.7891 19.7447 28.7479 19.5244C28.5204 18.3189 28.1066 17.1143 27.5393 15.9767C27.2634 15.4249 26.9514 14.8886 26.6055 14.3748C27.0956 13.8282 27.6268 13.3299 28.1827 12.9047C28.8406 12.4002 29.5314 11.9977 30.2232 11.7239C30.9161 11.45 31.6069 11.3059 32.2791 11.3059C32.9401 11.3059 33.5856 11.4418 34.229 11.7486C34.8725 12.0554 35.519 12.5382 36.1532 13.2599C36.7215 13.9074 37.1168 14.5684 37.3731 15.2417C37.6295 15.916 37.7499 16.6068 37.7499 17.3244C37.7499 17.9791 37.648 18.6565 37.4503 19.3515C37.1055 20.5673 36.461 21.8346 35.5777 23.0906C34.2537 24.9757 32.3955 26.8288 30.2737 28.4677C28.1519 30.1077 25.7655 31.5346 23.3976 32.5919C22.9127 32.8081 22.6955 33.3764 22.9117 33.8613C23.1279 34.3462 23.6962 34.5634 24.1811 34.3472C28.0129 32.6341 31.8251 30.0532 34.7273 27.0861C36.1779 25.6006 37.4009 24.0172 38.274 22.3782C38.7105 21.5587 39.0584 20.7238 39.2993 19.8786C39.5392 19.0344 39.672 18.1799 39.672 17.3254C39.672 16.3906 39.5124 15.4579 39.1696 14.5591L39.1758 14.5571ZM26.865 19.8806C26.8845 19.9836 26.8938 20.0834 26.8938 20.1823C26.8938 20.6085 26.7208 21.0049 26.4336 21.2972C26.2905 21.4424 26.1196 21.5608 25.9302 21.6411C25.7408 21.7224 25.5328 21.7677 25.3053 21.7677C25.0777 21.7677 24.8698 21.7224 24.6804 21.6411C24.3972 21.5196 24.1543 21.3147 23.9844 21.0594C23.8145 20.8031 23.7178 20.5025 23.7178 20.1823C23.7178 20.0834 23.727 19.9836 23.7466 19.8817C23.9319 18.8944 24.3231 17.8453 24.8718 16.8374C25.0252 16.5543 25.192 16.2753 25.3691 16.0015C26.098 17.2183 26.6199 18.5721 26.866 19.8806H26.865Z" fill="white"/>
<defs>
<linearGradient id="paint0_linear_194_2052" x1="6.36029" y1="7.09951" x2="43.3494" y2="42.6205" gradientUnits="userSpaceOnUse">
<stop stop-color="#FB00FF"/>
<stop offset="1" stop-color="#FFDE12"/>
</linearGradient>
<linearGradient id="paint1_linear_194_2052" x1="1.85602" y1="2.7738" x2="47.7822" y2="46.8772" gradientUnits="userSpaceOnUse">
<stop stop-color="#FB00FF"/>
<stop offset="1" stop-color="#FFDE12"/>
</linearGradient>
</defs>
</svg>
