<svg width="16" height="16" viewBox="0 0 16 16" fill="none" xmlns="http://www.w3.org/2000/svg">
<path d="M13.9987 2.6665C14.3406 2.6665 14.6224 2.92386 14.6609 3.25542L14.6654 3.33317V7.6665C14.6654 8.91221 13.6892 9.92992 12.4601 9.99638L12.332 9.99984H3.6087L5.80344 12.1951C6.04376 12.4354 6.06224 12.8136 5.85889 13.0751L5.80344 13.1379C5.56311 13.3782 5.18496 13.3967 4.92343 13.1934L4.86063 13.1379L1.52729 9.80457C1.5037 9.78098 1.48224 9.75605 1.46292 9.73004L1.41515 9.65588L1.37951 9.58073L1.35593 9.5105L1.33938 9.43215L1.33468 9.39304L1.33203 9.33317L1.33389 9.28301L1.34552 9.19935L1.36519 9.12508L1.39448 9.05102L1.42936 8.98603L1.47183 8.92457L1.52729 8.86177L4.86063 5.52843C5.12098 5.26808 5.54309 5.26808 5.80344 5.52843C6.04376 5.76876 6.06224 6.14691 5.85889 6.40844L5.80344 6.47124L3.6087 8.6665H12.332C12.8518 8.6665 13.279 8.26991 13.3275 7.76281L13.332 7.6665V3.33317C13.332 2.96498 13.6305 2.6665 13.9987 2.6665Z" fill="#212121"/>
</svg>
