<svg width="24" height="25" viewBox="0 0 24 25" fill="none" xmlns="http://www.w3.org/2000/svg">
<path d="M5.3733 0.643224C9.53411 0.221033 14.3004 0.893206 18.5251 0.626559C21.3583 0.94598 23.5914 3.21248 23.8775 6.05117C23.6303 10.237 24.2164 14.8172 23.8775 18.9586C23.6498 21.7639 21.2499 24.1638 18.4446 24.3915C14.3032 24.7304 9.72299 24.1443 5.53718 24.3915C2.66794 24.1026 0.393101 21.8278 0.104233 18.9586C0.306996 14.7922 -0.170747 10.3647 0.0986781 6.22893C0.279221 3.40136 2.52073 0.932093 5.3733 0.643224ZM5.83993 2.59308C3.58732 2.81251 2.2013 4.36518 2.04576 6.60113C1.76245 10.6786 2.17075 15.2088 2.1652 19.3058C2.65683 21.2362 4.13172 22.3083 6.08436 22.4444C10.1618 22.7277 14.6921 22.3194 18.789 22.325C20.7194 21.8334 21.7916 20.3585 21.9277 18.4058C22.211 14.3284 21.8027 9.79812 21.8082 5.70119C21.4277 4.16519 20.3222 3.0625 18.789 2.68197C14.6699 2.73752 9.91186 2.19867 5.83715 2.59308H5.83993Z" fill="white"/>
<path d="M17.9363 12.5035C17.9363 15.7894 15.2726 18.4531 11.9867 18.4531C8.70081 18.4531 6.03711 15.7894 6.03711 12.5035C6.03711 9.21765 8.70081 6.55396 11.9867 6.55396C15.2726 6.55396 17.9363 9.21765 17.9363 12.5035ZM15.9503 12.5035C15.9503 10.3148 14.1782 8.5427 11.9895 8.5427C9.80073 8.5427 8.02863 10.3148 8.02863 12.5035C8.02863 14.6923 9.80073 16.4644 11.9895 16.4644C14.1782 16.4644 15.9503 14.6923 15.9503 12.5035Z" fill="white"/>
<path d="M18.4279 7.54824C19.2471 7.54824 19.9112 6.88418 19.9112 6.06501C19.9112 5.24585 19.2471 4.58179 18.4279 4.58179C17.6088 4.58179 16.9447 5.24585 16.9447 6.06501C16.9447 6.88418 17.6088 7.54824 18.4279 7.54824Z" fill="white"/>
</svg>
