<svg width="24" height="25" viewBox="0 0 24 25" fill="none" xmlns="http://www.w3.org/2000/svg">
<path d="M23.9394 24.4631H18.9855V15.3485C18.9855 14.8478 18.6693 13.7648 18.3716 13.3432C17.3887 11.9493 14.7115 12.2418 13.9183 13.7385C13.8024 13.9598 13.4704 14.9559 13.4704 15.1588V24.4605H8.51648V8.47629H13.1911V10.6265C13.4071 10.6792 13.3439 10.587 13.4045 10.5079C14.4849 9.11924 15.473 8.26285 17.3518 8.10211C21.8709 7.72003 23.697 10.197 23.9394 14.4131C24.1291 17.699 23.7998 21.1588 23.9394 24.4605V24.4631Z" fill="white"/>
<path d="M5.33597 8.47607H0.38208V24.4629H5.33597V8.47607Z" fill="white"/>
<path d="M2.87747 6.29181C4.46666 6.29181 5.75495 5.00352 5.75495 3.41434C5.75495 1.82515 4.46666 0.536865 2.87747 0.536865C1.28829 0.536865 0 1.82515 0 3.41434C0 5.00352 1.28829 6.29181 2.87747 6.29181Z" fill="white"/>
</svg>
