<svg width="26" height="26" viewBox="0 0 26 26" fill="none" xmlns="http://www.w3.org/2000/svg">
<g clip-path="url(#clip0_243_1951)">
<path d="M5.23036 26C4.98501 25.9439 4.73966 25.9019 4.50132 25.8248C2.56657 25.2079 1.38188 23.918 1.01737 21.9062C0.961286 21.6118 0.954276 21.3033 0.954276 20.9949C0.947266 15.6673 0.947266 10.3397 0.947266 5.00512C0.947266 3.09841 1.73939 1.63332 3.37973 0.644918C4.0597 0.231329 4.81677 0.00700998 5.61591 0C7.96425 0 10.3056 0 12.6469 0C13.0745 0 13.39 0.294419 13.404 0.693988C13.425 1.12861 13.1586 1.43704 12.724 1.48611C12.6119 1.50013 12.5067 1.50013 12.3946 1.50013C10.2425 1.50013 8.09744 1.50013 5.94538 1.50013C4.87986 1.50013 3.97558 1.84362 3.26757 2.64977C2.67172 3.32273 2.43338 4.12187 2.44039 5.00512C2.44039 10.3047 2.44039 15.5972 2.44039 20.8967C2.44039 21.1421 2.45441 21.3874 2.48245 21.6328C2.65069 23.1399 4.00362 24.4508 5.51076 24.4788C7.75395 24.5209 9.99714 24.4999 12.2333 24.5069C12.3455 24.5069 12.4506 24.5069 12.5628 24.5069C12.9413 24.5349 13.2217 24.7662 13.2848 25.1027C13.3549 25.4532 13.1797 25.7687 12.8222 25.9439C12.7941 25.9579 12.7661 25.979 12.738 25.993H5.23036V26Z" fill="#F10000"/>
<path d="M22.4185 13.7533C22.3204 13.7533 22.2223 13.7533 22.1241 13.7533C17.2802 13.7533 12.4433 13.7533 7.59944 13.7533C7.45223 13.7533 7.291 13.7463 7.15081 13.7042C6.82134 13.6061 6.63908 13.3187 6.6531 12.9682C6.66712 12.6457 6.87742 12.3653 7.19987 12.2882C7.34007 12.2532 7.48728 12.2461 7.62748 12.2461C12.4574 12.2461 17.2942 12.2461 22.1241 12.2461C22.2223 12.2461 22.3204 12.2461 22.4746 12.2461C22.3765 12.141 22.3134 12.0709 22.2503 12.0078C21.2128 10.9633 20.1613 9.93285 19.1309 8.87435C18.9907 8.72714 18.8785 8.50983 18.8364 8.31355C18.7733 8.01212 18.9346 7.77378 19.1939 7.61956C19.4673 7.45833 19.7477 7.48637 20.0001 7.66863C20.0842 7.72471 20.1543 7.80182 20.2244 7.87192C21.7175 9.35804 23.2036 10.8512 24.6968 12.3443C25.1664 12.814 25.1664 13.1855 24.7038 13.6481C23.1896 15.1623 21.6755 16.6765 20.1613 18.1906C19.944 18.4079 19.6987 18.5341 19.3902 18.464C18.8995 18.3588 18.6542 17.763 18.9276 17.3424C18.9977 17.2372 19.0888 17.1461 19.1729 17.055C20.1894 16.0385 21.2058 15.0221 22.2293 14.0056C22.2924 13.9426 22.3765 13.8865 22.4466 13.8304L22.4045 13.7533H22.4185Z" fill="#F10000"/>
</g>
<defs>
<clipPath id="clip0_243_1951">
<rect width="24.1073" height="26" fill="white" transform="translate(0.947266)"/>
</clipPath>
</defs>
</svg>
