<svg width="24" height="24" viewBox="0 0 24 24" fill="none" xmlns="http://www.w3.org/2000/svg">
<g clip-path="url(#clip0_370_2761)">
<path d="M20.857 11.074C20.8055 11.1291 20.6073 11.1871 20.5243 11.1964L16.748 11.2222L14.2825 14.5423C14.1544 14.6067 14.0206 14.5773 13.9312 14.4664L12.8114 10.7119L9.16608 9.64408C8.7697 9.45013 8.90493 9.19177 9.1997 8.97634L12.2741 6.74768L12.2999 2.97026C12.3335 2.66394 12.5038 2.46713 12.8143 2.61886L15.8715 4.85969C16.9197 4.53906 17.9285 4.0896 18.9681 3.74679C19.3244 3.62941 19.9848 3.27515 19.949 3.92141L18.634 7.62297L20.8742 10.6811C20.9507 10.7799 20.9386 10.9853 20.8556 11.0733L20.857 11.074Z" fill="#FB698E"/>
<path d="M11.5685 11.9224L10.0883 11.498L2.28628 18.8352L0.444699 20.5523C-0.931538 22.2349 1.16747 24.4158 2.91995 23.0737L4.80114 21.0161C4.89024 20.9323 4.96945 20.8385 5.01896 20.7842C7.30609 18.3911 9.53876 15.9438 11.8556 13.5803L11.9992 13.3286L11.5685 11.9175V11.9224Z" fill="#FB698E"/>
<path d="M3.41993 5.00738C3.62584 4.94982 3.7909 5.1709 3.88761 5.32858C4.12936 5.72654 4.28109 6.7744 4.52785 6.99882C4.85464 7.29583 6.44523 7.4193 6.49859 7.96826C6.55694 8.56227 4.78794 8.7041 4.49617 9.02446C4.20439 9.34483 4.06517 10.9442 3.52747 10.9967C2.94308 11.0534 2.79136 9.28309 2.47207 8.99276C2.15279 8.70243 0.553019 8.55727 0.501333 8.02332C0.444645 7.43849 2.21364 7.28665 2.50375 6.96712C2.8122 6.62756 2.9014 5.15088 3.41993 5.00655V5.00738Z" fill="#FB698E"/>
<path d="M18.006 15.0061C18.1828 14.9567 18.3244 15.1463 18.4074 15.2816C18.6149 15.623 18.7451 16.5219 18.9569 16.7144C19.2374 16.9692 20.6025 17.0751 20.6483 17.546C20.6984 18.0556 19.1801 18.1773 18.9297 18.4521C18.6793 18.7269 18.5598 20.0989 18.0983 20.144C17.5968 20.1927 17.4666 18.674 17.1925 18.4249C16.9185 18.1759 15.5455 18.0513 15.5011 17.5933C15.4525 17.0916 16.9707 16.9613 17.2197 16.6872C17.4844 16.3959 17.561 15.1292 18.006 15.0053V15.0061Z" fill="#FB698E"/>
<path d="M16.5193 0.00946667C16.92 -0.0556613 17.2376 0.222743 17.282 0.614226C17.3128 0.883326 17.3178 1.90319 17.2469 2.13221C17.0795 2.66898 16.2996 2.7155 16.0628 2.20879C15.9641 1.99909 15.9598 0.727305 16.0199 0.476098C16.07 0.2664 16.3025 0.0445356 16.5193 0.00875098V0.00946667Z" fill="#FB698E"/>
<path d="M21.4473 6.22522C21.7092 6.17727 22.9262 6.17942 23.1366 6.27818C23.7147 6.54943 23.5494 7.4054 22.9298 7.49343C22.6593 7.53207 21.4974 7.53136 21.2863 7.43259C20.7326 7.1728 20.8585 6.33258 21.4473 6.22522Z" fill="#FB698E"/>
<path d="M22.3575 0.384493C22.8733 0.300757 23.2869 0.824644 23.0544 1.29843C23.0107 1.38789 21.979 2.43137 21.8838 2.48505C21.3379 2.79351 20.7176 2.20092 20.9902 1.64411C21.0374 1.54749 21.9819 0.588465 22.1006 0.504729C22.1836 0.446043 22.253 0.40167 22.3575 0.384493Z" fill="#FB698E"/>
</g>
<defs>
<clipPath id="clip0_370_2761">
<rect width="24" height="24" fill="white"/>
</clipPath>
</defs>
</svg>
