<svg width="68" height="49" viewBox="0 0 68 49" fill="none" xmlns="http://www.w3.org/2000/svg">
<path d="M44.6554 26.621C44.4389 27.7704 43.5227 28.7699 42.823 29.7028L23.9493 48.5765C23.5161 48.8431 22.8665 48.8431 22.5167 48.4933L3.17647 28.9365C-5.95223 15.2601 12.4218 1.21725 23.2829 13.4777C25.765 10.6791 29.1799 8.86337 32.9947 8.81339C34.4106 0.734159 44.6554 -1.94781 50.0527 4.16575C58.9815 -5.17951 72.8411 6.63117 64.9451 16.8926L50.5191 31.2353C50.086 31.4519 49.7862 31.3686 49.403 31.1021C48.0037 30.1692 46.4878 27.7371 45.0885 26.7709C44.9553 26.671 44.922 26.5377 44.6721 26.6044L44.6554 26.621ZM41.457 3.04965C35.3268 3.88256 32.8947 11.6453 37.2592 15.9764L49.7195 28.4534L50.186 28.5867L63.6791 14.9603C68.6932 7.63066 59.4812 -0.781738 52.718 4.6655C52.0184 5.23188 50.9356 6.83107 50.0527 6.83107C49.1698 6.83107 48.087 5.23188 47.3874 4.6655C45.7215 3.33284 43.5726 2.7498 41.4404 3.04965H41.457ZM32.8448 10.979C30.4293 11.1122 28.1971 12.0118 26.3647 13.561C25.6317 14.1773 24.1492 16.1597 23.2829 16.1597C22.4167 16.1597 20.501 13.7276 19.7014 13.0779C10.3728 5.73162 -2.454 18.2253 5.17546 27.937L23.3163 46.0612L23.716 45.8279C28.9467 40.0142 35.4767 34.8002 40.5908 28.9532C41.1405 28.3202 41.8069 27.5039 42.24 26.7709C42.5898 26.1712 43.2728 25.2051 42.8397 24.5221C39.3081 20.2909 33.1113 17.0759 32.8614 10.979H32.8448Z" fill="#E72E68"/>
<path d="M11.8559 13.1944C12.9221 13.0944 14.0215 13.7275 13.2885 14.8102C12.8388 15.4766 11.7727 15.3933 11.0064 15.6931C9.97356 16.0763 8.85746 17.0424 8.35772 18.0419C7.85797 19.0414 7.9246 22.0732 6.12552 20.9904C4.90947 20.2575 6.20881 17.2923 6.8085 16.3428C7.82465 14.7603 9.94025 13.3776 11.8393 13.2111L11.8559 13.1944Z" fill="#E72E68"/>
</svg>
