<svg width="76" height="74" viewBox="0 0 76 74" fill="none" xmlns="http://www.w3.org/2000/svg">
<path d="M12.2584 10.2122C24.4371 -1.56454 44.2386 -3.44047 58.323 6.07319L58.7548 5.92431C59.6481 5.35855 61.3305 0.609163 62.5364 3.00619C63.0129 3.95904 65.3354 12.1774 65.395 13.1898C65.4546 14.0831 65.1419 14.5893 64.3082 14.9467C63.2957 15.3933 57.4446 15.84 55.9856 15.8846C49.7176 16.1228 53.4099 14.5893 54.9583 11.1352C31.3453 -4.25933 1.25594 16.7333 7.77704 44.4405C9.92097 53.5224 16.5761 61.5472 25.0773 65.3438C27.8763 66.5944 30.7498 67.0708 33.5935 68.113C35.8118 70.0931 34.8739 73.5026 31.6878 73.5026C28.189 73.5026 21.2808 70.2867 18.2584 68.3959C-2.15349 55.6217 -5.07161 26.9764 12.2584 10.2122Z" fill="#FB698E"/>
<path d="M35.2309 13.0559C36.6602 12.639 38.2533 13.3685 38.4766 14.8871L38.6404 36.4306L57.8612 46.4356C60.4816 48.2222 58.6503 51.8401 55.6429 50.6788L33.7123 39.3338L33.5783 15.7507C33.5634 14.8574 34.3674 13.3239 35.2309 13.0559Z" fill="#FB698E"/>
<path d="M71.4262 32.7383C76.4734 32.0088 76.2203 41.9393 71.2029 40.6589C67.9275 39.8252 68.0764 33.2296 71.4262 32.7383Z" fill="#FB698E"/>
<path d="M48.2452 72.2222C46.7266 73.711 42.1112 74.2024 41.2328 71.4629C40.3544 68.7234 43.213 67.2495 45.5951 67.1006C48.6621 66.922 50.3296 70.1527 48.2303 72.2073L48.2452 72.2222Z" fill="#FB698E"/>
<path d="M64.7562 54.4305C66.0514 54.2667 67.6594 55.3535 67.9423 56.6042C68.6718 59.7605 64.1457 63.8995 61.6296 61.1898C59.575 58.9565 62.5527 54.6985 64.7562 54.4305Z" fill="#FB698E"/>
<path d="M55.7778 62.5447C58.9639 61.8151 60.9292 65.1204 58.9193 67.4132C56.4478 70.2122 51.088 70.242 52.1749 65.5819C52.428 64.5099 54.8101 62.768 55.7927 62.5447H55.7778Z" fill="#FB698E"/>
<path d="M68.8052 21.4528C73.3759 20.4553 75.3263 30.103 69.624 29.1948C66.7804 28.7481 65.098 22.2568 68.8052 21.4528Z" fill="#FB698E"/>
<path d="M69.6691 44.3214C75.4309 43.1452 73.7634 53.2395 68.8652 51.9293C65.2771 50.9616 67.0637 44.8425 69.6691 44.3214Z" fill="#FB698E"/>
</svg>
