<svg width="250" height="250" viewBox="0 0 250 250" fill="none" xmlns="http://www.w3.org/2000/svg">
<g clip-path="url(#clip0_194_1942)">
<path d="M250 0H0V250H250V0Z" fill="white"/>
<path d="M112.069 25.8621V17.2415H103.448H94.8276H86.2069V25.8621H94.8276V34.4828H103.448V25.8621H112.069Z" fill="#180054"/>
<path d="M163.793 25.8621V17.2415H155.172H146.552V25.8621H155.172H163.793Z" fill="#180054"/>
<path d="M146.552 34.4828V25.8621H137.931V17.2415H129.31H120.69V25.8621H129.31V34.4828H137.931H146.552Z" fill="#180054"/>
<path d="M86.2069 43.1035V86.207H68.9655V94.8277H77.5862V103.448H94.8276V112.069H112.069V103.448H120.69V86.207H129.31V68.9656H120.69V77.5863H112.069V51.7242H103.448V60.3449H94.8276V51.7242H103.448V43.1035H86.2069ZM112.069 94.8277H94.8276V86.207H112.069V94.8277ZM103.448 68.9656V77.5863H94.8276V68.9656H103.448Z" fill="#180054"/>
<path d="M129.31 43.1036V34.4829H120.69H112.069H103.448V43.1036H112.069H120.69V51.7243H129.31H137.931V43.1036H129.31Z" fill="#180054"/>
<path d="M146.552 68.9656H137.931V77.5863H146.552V68.9656Z" fill="#180054"/>
<path d="M163.793 68.9657V60.345V51.7243H155.172V43.1036H163.793V34.4829H155.172H146.552V43.1036V51.7243H137.931V60.345H146.552H155.172V68.9657V77.5864H146.552V86.207H155.172H163.793V77.5864V68.9657Z" fill="#180054"/>
<path d="M25.8621 86.207H17.2414V94.8277H25.8621V86.207Z" fill="#180054"/>
<path d="M60.3448 86.207H51.7241V94.8277H60.3448V86.207Z" fill="#180054"/>
<path d="M232.759 86.207H224.138V94.8277H232.759V86.207Z" fill="#180054"/>
<path d="M34.4827 94.8276H25.8621V103.448H34.4827H43.1034H51.7241V94.8276H43.1034H34.4827Z" fill="#180054"/>
<path d="M146.552 94.8276H137.931V103.448V112.069H146.552H155.172H163.793V103.448V94.8276H155.172H146.552Z" fill="#180054"/>
<path d="M224.138 94.8276H215.517V103.448H224.138V94.8276Z" fill="#180054"/>
<path d="M68.9655 103.448V94.8276H60.3448V103.448V112.069H68.9655H77.5862V103.448H68.9655Z" fill="#180054"/>
<path d="M189.655 103.448H181.034V112.069H189.655V103.448Z" fill="#180054"/>
<path d="M206.897 103.448V94.8277V86.207H198.276H189.655H181.034H172.414H163.793V94.8277H172.414H181.034H189.655V103.448H198.276V112.069H206.897V120.69H198.276V129.31H206.897H215.517V137.931H224.138V129.31H232.759V120.69H224.138V112.069H215.517V103.448H206.897Z" fill="#180054"/>
<path d="M86.2069 112.069H77.5862V120.69H86.2069H94.8276V112.069H86.2069Z" fill="#180054"/>
<path d="M120.69 120.69V129.31H129.31V120.69V112.069H120.69H112.069V120.69H120.69Z" fill="#180054"/>
<path d="M60.3448 129.31V120.69H51.7242V112.069H43.1035V120.69V129.31H34.4828H25.8621V120.69H17.2414V129.31V137.931H25.8621H34.4828H43.1035H51.7242V129.31H60.3448Z" fill="#180054"/>
<path d="M77.5862 120.69H68.9655V129.31H77.5862V120.69Z" fill="#180054"/>
<path d="M94.8276 120.69V129.31V137.931H103.448H112.069V129.31V120.69H103.448H94.8276Z" fill="#180054"/>
<path d="M181.034 120.69V112.069H172.414V120.69H163.793V129.31H172.414H181.034H189.655V120.69H181.034Z" fill="#180054"/>
<path d="M155.172 129.31V120.69H146.552V129.31H137.931V137.931H146.552V146.552H155.172V137.931V129.31Z" fill="#180054"/>
<path d="M77.5862 137.931H68.9655H60.3448H51.7241V146.552V155.173H60.3448H68.9655V146.552H77.5862H86.2069V137.931H77.5862Z" fill="#180054"/>
<path d="M198.276 137.931V129.311H189.655V137.931H163.793V146.552H181.034V155.173H163.793V146.552H155.172V163.793H137.931V172.414H129.31V163.793H120.69V172.414H112.069V181.035H94.8276V189.655H103.448V198.276H94.8276V206.897H112.069V189.655H120.69V181.035H146.552V172.414H155.172V198.276H163.793V215.517H172.414V232.759H181.034V224.138H206.897V232.759H232.759V224.138H224.138V206.897H232.759V181.035H224.138V189.655H215.517V181.035H198.276V163.793H215.517V155.173H224.138V146.552H215.517V137.931H198.276ZM215.517 215.517H206.897V206.897H198.276V215.517H181.034V206.897H189.655V198.276H206.897V206.897H215.517V215.517ZM189.655 172.414V189.655H163.793V163.793H189.655V172.414ZM206.897 155.173H198.276V146.552H206.897V155.173Z" fill="#180054"/>
<path d="M129.31 146.552H120.69V155.172H129.31V146.552Z" fill="#180054"/>
<path d="M146.552 146.552H137.931V155.172H146.552V146.552Z" fill="#180054"/>
<path d="M34.4828 155.172H25.8621H17.2414V163.793H25.8621H34.4828H43.1035H51.7242V155.172H43.1035H34.4828Z" fill="#180054"/>
<path d="M77.5862 155.172H68.9655V163.793H77.5862V155.172Z" fill="#180054"/>
<path d="M103.448 172.414V163.793H112.069H120.69V155.172H112.069H103.448V146.552H94.8276H86.2069V155.172H94.8276V163.793H86.2069V172.414V181.035H94.8276V172.414H103.448Z" fill="#180054"/>
<path d="M181.035 172.414H172.414V181.035H181.035V172.414Z" fill="#180054"/>
<path d="M94.8276 189.655H86.2069V198.276H94.8276V189.655Z" fill="#180054"/>
<path d="M129.31 189.655H120.69V198.276H129.31V189.655Z" fill="#180054"/>
<path d="M137.931 198.276V206.897H146.552V215.517H137.931V224.138H129.31V215.517H120.69V224.138H112.069V232.759H120.69H129.31H137.931H146.552H155.172V224.138V215.517V206.897V198.276H146.552H137.931Z" fill="#180054"/>
<path d="M137.931 206.897H129.31V215.517H137.931V206.897Z" fill="#180054"/>
<path d="M112.069 215.517H103.448V224.138H112.069V215.517Z" fill="#180054"/>
<path d="M94.8276 224.138H86.2069V232.759H94.8276V224.138Z" fill="#180054"/>
<path d="M68.5345 17.2415H17.2414V77.5863H77.5862V17.2415H68.5345ZM68.5345 68.5346H26.2931V26.2932H68.5345V68.5346Z" fill="#180054"/>
<path d="M223.707 17.2415H172.414V77.5863H232.759V17.2415H223.707ZM223.707 68.5346H181.466V26.2932H223.707V68.5346Z" fill="#180054"/>
<path d="M68.5345 172.414H17.2414V232.759H77.5862V172.414H68.5345ZM68.5345 223.707H26.2931V181.466H68.5345V223.707Z" fill="#180054"/>
<path d="M60.3449 34.4829H34.4828V60.345H60.3449V34.4829Z" fill="#180054"/>
<path d="M215.517 34.4829H189.655V60.345H215.517V34.4829Z" fill="#180054"/>
<path d="M60.3449 189.655H34.4828V215.517H60.3449V189.655Z" fill="#180054"/>
<rect width="40" height="5" fill="#7A52DE"/>
<rect y="245" width="40" height="5" fill="#7A52DE"/>
<rect x="210" width="40" height="5" fill="#7A52DE"/>
<rect x="210" y="245" width="40" height="5" fill="#7A52DE"/>
<rect x="5" width="40" height="5" transform="rotate(90 5 0)" fill="#7A52DE"/>
<rect x="5" y="210" width="40" height="5" transform="rotate(90 5 210)" fill="#7A52DE"/>
<rect x="250" width="40" height="5" transform="rotate(90 250 0)" fill="#7A52DE"/>
<rect x="250" y="210" width="40" height="5" transform="rotate(90 250 210)" fill="#7A52DE"/>
</g>
<defs>
<clipPath id="clip0_194_1942">
<rect width="250" height="250" fill="white"/>
</clipPath>
</defs>
</svg>
