<svg width="22" height="22" viewBox="0 0 22 22" fill="none" xmlns="http://www.w3.org/2000/svg">
<path d="M14.6612 14.0435C16.8019 16.2694 17.7131 21.3078 13.7933 21.9996H2.58363C-0.887768 21.2927 -0.381523 16.9612 1.31078 14.6601C2.30881 13.3066 4.01558 12.2989 5.66449 12.1786C7.09644 12.0733 9.45409 12.0733 10.886 12.1786C12.2312 12.2989 13.7066 13.0509 14.6612 14.0435ZM5.63556 13.8931C4.27593 14.0435 2.90184 15.0512 2.23649 16.2694C1.64346 17.3673 1.06489 19.7587 2.61255 20.285L13.6487 20.3302C15.0083 20.1497 14.9794 18.7359 14.7624 17.638C14.3719 15.6528 12.6796 14.1037 10.7559 13.8931C9.10695 13.9984 7.27001 13.7277 5.65002 13.8931H5.63556Z" fill="black"/>
<path d="M14.3008 5.50002C14.3008 8.5345 11.8352 11 8.80077 11C5.76629 11 3.30078 8.5345 3.30078 5.50002C3.30078 2.46554 5.76629 3.05176e-05 8.80077 3.05176e-05C11.8352 3.05176e-05 14.3008 2.46554 14.3008 5.50002ZM12.6668 5.50002C12.6668 3.37005 10.9453 1.64857 8.81536 1.64857C6.68539 1.64857 4.96391 3.37005 4.96391 5.50002C4.96391 7.62999 6.68539 9.35147 8.81536 9.35147C10.9453 9.35147 12.6668 7.62999 12.6668 5.50002Z" fill="black"/>
<path d="M15.645 2.22862C16.2938 2.14344 17.3001 2.51255 17.8562 2.86746C20.6632 4.6846 20.3719 9.24165 17.3663 10.6329C16.6645 10.9594 15.6583 11.1156 14.9036 10.9026C13.9635 10.6329 14.2018 9.29844 15.0757 9.31264C15.8172 9.31264 16.1084 9.49719 16.8764 9.09969C19.0875 7.96398 18.6374 4.32969 16.2276 3.84701C15.8304 3.76183 15.3935 3.8896 15.1286 3.4779C14.7844 2.95264 15.0757 2.2854 15.645 2.20023V2.22862Z" fill="black"/>
<path d="M15.9901 12.1295C16.438 12.0446 17.2219 12.1578 17.6858 12.2568C19.8456 12.7238 21.5413 14.3938 21.8933 16.3326C22.2772 18.5261 21.6853 20.0262 18.8537 19.7714C18.1338 19.7007 17.6379 19.1205 18.0698 18.5261C18.5817 17.8468 19.9255 18.427 20.1495 18.0308C20.2135 17.9176 20.1975 17.0826 20.1815 16.9128C20.0375 15.2853 18.6457 13.955 16.838 13.7145C16.454 13.6579 16.1661 13.7569 15.7821 13.5446C15.1742 13.205 15.3182 12.2427 16.0061 12.1295H15.9901Z" fill="black"/>
</svg>
