<svg width="49" height="48" viewBox="0 0 49 48" fill="none" xmlns="http://www.w3.org/2000/svg">
<g clip-path="url(#clip0_194_950)">
<path d="M48.9457 18.6644V21.2819L48.6236 23.5369C46.0665 37.4295 30.4424 44.396 18.3014 36.8859C17.7377 36.5235 17.2142 36.1007 16.6504 35.7383L13.8518 38.5369C13.6101 39.4027 13.4491 39.9463 12.8652 40.651C10.8518 43.047 8.01283 45.3221 5.79807 47.557L4.71082 48H3.5833C1.40881 47.4161 0.220887 45.1409 1.44907 43.0872C3.66384 40.9329 5.91887 38.094 8.27458 36.1409C8.93901 35.5772 9.5229 35.3356 10.3887 35.1544L13.2276 32.2953C4.91216 21.604 9.40209 5.75839 22.1672 1.18792C34.6907 -3.30202 47.939 5.3557 48.8652 18.5034L48.9457 18.6443V18.6644ZM47.3551 19.9732C47.3551 9.8255 39.1202 1.5906 28.9726 1.5906C18.8249 1.5906 10.59 9.8255 10.59 19.9732C10.59 30.1208 18.8249 38.3557 28.9726 38.3557C39.1202 38.3557 47.3551 30.1208 47.3551 19.9732ZM14.3148 33.5638L12.3014 35.5772L13.3685 36.745L15.382 34.6309L14.3148 33.5638ZM10.3081 36.7651C9.92558 36.8255 9.54303 37.1476 9.26116 37.3893C7.61015 38.7785 4.61015 41.7785 3.22089 43.4295C2.65713 44.094 2.37525 44.8389 2.89874 45.6242C3.5229 46.5705 4.61015 46.4497 5.41552 45.8255C7.59001 44.1342 9.62357 41.2752 11.7779 39.4429C12.8048 38.2752 11.8383 36.5034 10.3081 36.7651Z" fill="#E72E68"/>
<path d="M45.7644 19.9932C45.7644 29.255 38.2544 36.7852 28.9725 36.7852C19.6906 36.7852 12.1805 29.2751 12.1805 19.9932C12.1805 10.7114 19.7107 3.20129 28.9725 3.20129C38.2342 3.20129 45.7644 10.7114 45.7644 19.9932ZM44.1537 19.9731C44.1537 11.5771 37.3483 4.7919 28.9725 4.7919C20.5966 4.7919 13.7913 11.5973 13.7913 19.9731C13.7913 28.3489 20.5966 35.1543 28.9725 35.1543C37.3483 35.1543 44.1537 28.3489 44.1537 19.9731Z" fill="#E72E68"/>
<path d="M36.2208 14.3557C36.0598 15 35.9188 15.5839 35.2343 15.8457C34.5094 16.1275 31.5296 16.1275 30.7846 15.8658C29.9994 15.5839 29.9591 15.0202 29.6772 14.3356H19.288C18.1604 14.2148 18.4826 12.6645 19.5698 12.745H29.5967L29.798 12.6645C29.8786 11.7181 30.5631 11.2349 31.4692 11.1544C32.194 11.094 34.5698 11.0738 35.1739 11.2953C35.7376 11.5168 36.1202 12.0604 36.1604 12.6645L36.2611 12.745C37.0061 12.8658 39.6034 12.3423 39.3819 13.7114C39.2007 14.8389 37.0464 14.1544 36.2208 14.3557ZM34.6101 14.3356V12.8859C34.5296 12.745 34.4289 12.7651 34.288 12.745C33.7242 12.6846 32.2141 12.6846 31.6504 12.745C31.5094 12.745 31.4088 12.745 31.3282 12.8859V14.3356H34.6101Z" fill="#E72E68"/>
<path d="M39.1806 19.4295C39.6235 19.9328 39.2813 20.6375 38.6772 20.7785H28.147C28.147 21.7852 27.4625 22.3087 26.5161 22.3892C25.7913 22.4496 23.7578 22.4899 23.0933 22.349C22.3484 22.1879 21.8651 21.5436 21.7846 20.7986C20.9792 20.6375 18.6638 21.2617 18.6034 19.9933C18.543 18.7248 20.9792 19.3691 21.7846 19.1879C21.845 18.302 22.3282 17.6778 23.2343 17.5973C23.9591 17.5369 26.4155 17.4966 27.0598 17.6174C27.6437 17.7382 28.2074 18.5033 28.2074 19.1073L28.4088 19.1879H38.8786C38.9792 19.2684 39.1202 19.3288 39.2007 19.4094L39.1806 19.4295ZM26.5564 19.2282H23.3752V20.8188H26.5564V19.2282Z" fill="#E72E68"/>
<path d="M32.9189 27.1812C33.0196 28.1275 32.2545 28.6912 31.3685 28.7718C30.6638 28.8322 28.0263 28.8523 27.4826 28.6107C26.8383 28.3288 26.7175 27.7449 26.4759 27.161H19.2679C18.3417 26.9395 18.3216 25.7315 19.2679 25.5704H26.4759C26.6169 24.9261 27.08 24.1006 27.8048 23.9798C28.5296 23.859 30.7847 23.8993 31.5498 23.9798C32.3551 24.0603 32.8987 24.7046 32.9591 25.4899L33.0598 25.5704H38.5766C39.5632 25.6912 39.6034 26.9597 38.6571 27.1812H32.8987H32.9189ZM31.3283 25.5905H28.1471V27.1812H31.3283V25.5905Z" fill="#E72E68"/>
</g>
<defs>
<clipPath id="clip0_194_950">
<rect width="48" height="48" fill="white" transform="translate(0.945679)"/>
</clipPath>
</defs>
</svg>
