<svg width="61" height="61" viewBox="0 0 61 61" fill="none" xmlns="http://www.w3.org/2000/svg">
<path d="M8.6843 60.5C8.55424 60.2977 8.56869 60.0809 8.56869 59.8642C8.52534 58.7514 8.43863 56.9162 8.56869 55.8613C8.58314 55.6879 8.58314 55.5578 8.75655 55.4566H11.9791C11.4878 47.0462 14.1467 38.7514 21.1554 33.7514C21.9502 33.1879 22.875 33 23.323 32.0462C23.7276 31.1936 23.5976 30.5289 23.2941 29.6763C22.6149 27.7543 21.4444 27.5231 20.0138 26.396C13.8577 21.4971 11.5022 13.1734 11.9646 5.54335H8.7421L8.56869 5.36994V0.67341L8.7421 0.5H51.7479L51.9213 0.67341V5.35549L51.7479 5.5289H48.5253C49.0022 13.1734 46.6323 21.4827 40.4907 26.3815C39.0167 27.5665 37.875 27.7399 37.1814 29.7486C36.2999 32.3208 37.7161 32.5665 39.349 33.737C46.3577 38.7514 49.0167 47.0173 48.5253 55.4422H51.7479C51.9213 55.5434 51.9068 55.6734 51.9357 55.8468C52.0658 56.9162 51.9646 58.7081 51.9357 59.8497C51.9357 60.0665 51.9357 60.2977 51.8201 60.4855H8.6843V60.5ZM14.6092 6.48266C14.4357 6.58382 14.4502 6.71387 14.4213 6.88728C14.349 7.55202 14.4791 9.43064 14.5369 10.1821C14.9704 15.341 17.3259 21.0058 21.4011 24.3006C23.4242 25.9335 24.5658 25.9913 25.6207 28.7659C27.7305 34.315 22.745 35.0809 19.8837 38.1445C16.0253 42.2775 14.6236 47.6821 14.4357 53.2023C14.4213 53.6214 14.3346 54.2572 14.6092 54.5607H45.8953C46.0687 54.4595 46.0542 54.3295 46.0831 54.1561C46.1554 53.4913 46.0253 51.6127 45.9675 50.8613C45.5196 45.7023 43.2074 40.0376 39.1034 36.7428C37.3982 35.3699 35.1727 34.7052 34.5947 32.3353C34.1756 30.6012 34.6525 29.026 35.5051 27.5231C36.56 25.6734 37.5571 25.5578 39.1034 24.315C43.1785 21.0202 45.534 15.3555 45.9675 10.1965C46.0253 9.44509 46.1698 7.58092 46.0831 6.90173C46.0687 6.72832 46.0831 6.59827 45.8953 6.49711H14.6092V6.48266Z" fill="#FF5F1A"/>
<path d="M19.1784 50.8903C18.846 50.7892 19.1061 49.6331 19.1495 49.3441C19.6263 46.3817 21.0714 42.9568 23.0367 40.688C25.0021 38.4192 27.6177 37.7979 29.2362 35.1678C29.4963 34.7487 29.7708 33.8961 30.0021 33.6071C30.1321 33.4337 30.3922 33.477 30.5223 33.6794C31.2159 34.8065 31.4327 35.6447 32.4298 36.6851C33.5425 37.8268 34.9298 38.3325 36.1148 39.3296C38.8749 41.6562 40.7824 45.7892 41.346 49.3296C41.3893 49.5609 41.6495 50.8759 41.3171 50.8759H19.1784V50.8903Z" fill="#FF5F1A"/>
<path d="M40.0869 15.6157C40.4482 15.977 38.3817 19.1273 38.0204 19.5897C37.4858 20.2834 36.7054 21.1504 36.0407 21.714C35.2025 22.4076 33.9164 22.9134 33.2227 23.5926C32.717 24.0984 31.9222 25.2689 31.5464 25.9047C31.3297 26.266 30.5204 28.2313 30.3904 28.2747C30.2459 28.3325 30.0291 28.3036 29.9279 28.1735C29.3788 26.6851 28.3384 24.6331 27.1823 23.5348C26.5753 22.9568 23.9886 21.7573 23.8008 21.0637L23.9019 20.7313L39.3644 15.688L40.0725 15.6302L40.0869 15.6157Z" fill="#FF5F1A"/>
</svg>
