<svg width="10" height="16" viewBox="0 0 10 16" fill="none" xmlns="http://www.w3.org/2000/svg">
<path d="M3.14743 8L9.60192 2.06233C9.72646 1.95168 9.8258 1.81932 9.89414 1.67297C9.96248 1.52663 9.99845 1.36922 9.99995 1.20995C10.0015 1.05068 9.96846 0.892725 9.9029 0.745308C9.83734 0.59789 9.74052 0.46396 9.61809 0.351333C9.49566 0.238706 9.35007 0.149637 9.18982 0.089323C9.02957 0.0290098 8.85787 -0.00133896 8.68473 4.48227e-05C8.5116 0.0014286 8.34049 0.0345192 8.18141 0.0973854C8.02232 0.160251 7.87844 0.251634 7.75815 0.3662L0.381776 7.15193C0.137325 7.37688 0 7.68193 0 8C0 8.31807 0.137325 8.62312 0.381776 8.84807L7.75815 15.6338C7.87844 15.7484 8.02232 15.8397 8.18141 15.9026C8.34049 15.9655 8.5116 15.9986 8.68473 16C8.85787 16.0013 9.02957 15.971 9.18982 15.9107C9.35007 15.8504 9.49566 15.7613 9.61809 15.6487C9.74052 15.536 9.83734 15.4021 9.9029 15.2547C9.96846 15.1073 10.0015 14.9493 9.99995 14.79C9.99845 14.6308 9.96248 14.4734 9.89414 14.327C9.8258 14.1807 9.72646 14.0483 9.60192 13.9377L3.14743 8Z" fill="black"/>
</svg>
