<svg width="49" height="48" viewBox="0 0 49 48" fill="none" xmlns="http://www.w3.org/2000/svg">
<g clip-path="url(#clip0_194_930)">
<path d="M29.7761 19.5897H33.996C34.9766 19.5897 36.3253 20.4047 37.0907 20.9798C38.518 22.0514 43.0193 25.6507 43.8592 26.925C44.488 27.8807 44.7694 28.9688 44.8438 30.1065C45.1913 35.5966 44.5749 41.4591 44.8397 46.9864C44.7859 48.0331 43.582 48.4261 43.1351 47.4125V30.3217C43.04 28.8033 42.7297 28.0462 41.6375 27.0119C40.1564 25.6094 37.976 23.8386 36.346 22.5851C35.7419 22.1217 34.6787 21.3025 33.8926 21.3025H29.7802V31.3973C29.7802 31.8979 28.9155 33.015 28.4935 33.3129C25.7754 35.2243 22.9786 31.4677 20.7735 30.4706C18.7504 29.5563 17.0045 32.0758 18.6345 33.6769L31.6502 43.3042C32.1467 43.8421 32.2915 44.5661 32.3453 45.2777C32.4032 46.0555 32.5811 48.0372 31.4434 48C29.9705 47.9545 31.0214 45.4391 30.467 44.5909C30.0409 43.9372 28.1667 43.0064 27.542 42.3899L25.672 42.9898H7.28616C5.30443 42.7499 3.69091 41.2191 3.31029 39.2746C3 27.9055 3.27306 16.4909 3.17376 5.10946C3.16962 2.51956 4.98173 0.351656 7.60886 0.144795C13.3968 -0.314436 19.7971 0.484047 25.6513 0.161344C27.3434 0.144795 29.7761 2.39958 29.7761 4.04619V19.5856V19.5897ZM7.18273 41.2729H25.8209C25.8705 41.066 25.7464 41.066 25.643 40.9709C23.3137 38.8443 19.9543 37.1522 17.5961 35.0257C14.7828 32.4854 16.7314 28.1496 20.4177 28.5758C22.0147 28.7578 24.1329 30.9009 25.6182 31.7076C26.6318 32.2579 27.5337 32.3406 28.0426 31.1615L28.055 4.38544C27.5709 1.84519 25.2789 1.69625 23.1069 1.8576C22.9207 1.8907 22.4987 5.04326 22.0519 5.46112C21.9485 5.55628 21.634 5.68039 21.4892 5.70108C18.3656 5.49422 14.8449 5.99896 11.7709 5.71349C11.4813 5.68453 11.1917 5.65557 10.9641 5.44871C10.4966 5.02257 10.265 2.73883 9.9919 2.04378C9.9588 1.90311 9.87192 1.88656 9.7478 1.86174C9.13963 1.7459 7.43096 1.84105 6.84347 2.05619C5.44923 2.56507 4.91553 3.81451 4.88243 5.22116V38.1286C4.85761 39.4111 5.86295 41.0536 7.18273 41.277V41.2729ZM21.3361 1.8576H11.7213C11.8123 2.20513 12.0936 3.90139 12.3212 3.98L20.7321 4.00068L21.332 1.8576H21.3361Z" fill="#E72E68"/>
<path d="M9.98776 19.5111L23.1565 19.5318C25.9285 20.0324 25.9864 25.0881 22.9786 25.4521L9.79332 25.4149C8.86658 25.1336 7.98535 24.3889 7.87778 23.3794C7.68333 21.5797 7.98949 19.9165 9.98776 19.507V19.5111ZM10.1988 21.2156C9.44579 21.3853 9.50371 22.4444 9.58232 23.0691C9.63196 23.458 9.91743 23.669 10.2898 23.7517L22.6766 23.76C23.8019 23.7476 23.8102 21.3356 22.7759 21.1991L10.2029 21.2156H10.1988Z" fill="#E72E68"/>
<path d="M14.6876 8.7213C17.6209 8.29516 19.9378 10.8644 19.1476 13.7191C19.764 14.2569 22.5897 15.1754 21.1789 16.2759C20.3474 16.9254 19.1186 15.527 18.2912 15.2291C15.5854 17.9473 11.1255 15.9035 11.5103 12.0559C11.6633 10.521 13.161 8.94057 14.6876 8.71716V8.7213ZM17.5713 12.5772C17.5713 11.3733 16.5949 10.3969 15.391 10.3969C14.187 10.3969 13.2107 11.3733 13.2107 12.5772C13.2107 13.7811 14.187 14.7575 15.391 14.7575C16.5949 14.7575 17.5713 13.7811 17.5713 12.5772Z" fill="#E72E68"/>
</g>
<defs>
<clipPath id="clip0_194_930">
<rect width="41.7942" height="48" fill="white" transform="translate(3.15723)"/>
</clipPath>
</defs>
</svg>
