<svg width="22" height="26" viewBox="0 0 22 26" fill="none" xmlns="http://www.w3.org/2000/svg">
<g clip-path="url(#clip0_243_1943)">
<path d="M18.1391 26H3.85907C3.81586 25.9838 3.77265 25.9568 3.72404 25.946C2.46023 25.7516 1.48266 25.1034 0.861559 24.0017C0.591514 23.5264 0.472694 22.9593 0.289062 22.43C0.289062 18.941 0.289062 15.4466 0.289062 11.9576C0.305265 11.9144 0.33227 11.8658 0.343072 11.8226C0.537505 10.5588 1.20182 9.61363 2.2766 8.94931C2.8923 8.57125 3.57822 8.40922 4.28574 8.37682C4.30194 8.33901 4.31274 8.32281 4.31814 8.30661C4.31814 8.23639 4.32895 8.16618 4.32354 8.10137C4.30194 6.90237 4.37215 5.70877 4.75022 4.55837C5.45234 2.41961 6.80256 0.912754 9.01154 0.275447C9.46521 0.140424 9.9405 0.0864146 10.405 0C10.7992 0 11.1989 0 11.5932 0C11.6796 0.0216037 11.766 0.0486082 11.8524 0.0540091C13.5861 0.23764 15.0282 0.972165 16.1029 2.3548C17.1507 3.69963 17.5666 5.26589 17.6584 6.93477C17.6854 7.40465 17.6584 7.87993 17.6584 8.36602C17.761 8.37682 17.8312 8.38222 17.896 8.38762C19.5973 8.54965 20.7909 9.41379 21.439 10.9909C21.5741 11.3149 21.6227 11.6714 21.7091 12.0116V22.3652C21.6875 22.4408 21.6659 22.5164 21.6497 22.592C21.385 24.0827 20.5479 25.1251 19.1545 25.7029C18.8304 25.838 18.4793 25.8974 18.1391 25.9946V26ZM10.9667 23.6776C12.0577 23.6776 13.1486 23.6776 14.2396 23.6776C15.3306 23.6776 16.4432 23.6776 17.5396 23.6776C18.663 23.6776 19.3813 22.9593 19.3813 21.8413C19.3813 18.7196 19.3813 15.5924 19.3813 12.4707C19.3813 11.4769 18.6306 10.71 17.6422 10.71C13.208 10.71 8.7793 10.71 4.34515 10.71C3.36758 10.71 2.61146 11.4607 2.60605 12.4383C2.60065 15.614 2.60065 18.7844 2.60605 21.9601C2.60605 22.4894 2.82209 22.9377 3.23256 23.2833C3.57282 23.5696 3.97789 23.683 4.41536 23.6776C6.59733 23.6776 8.7793 23.6776 10.9613 23.6776H10.9667ZM14.8337 8.37682C14.8013 7.7071 14.8067 7.05899 14.7311 6.42709C14.6393 5.59535 14.38 4.80681 13.8616 4.1263C13.2351 3.30536 12.3709 2.9489 11.3717 2.87869C10.0809 2.78687 8.91432 3.08392 8.10959 4.18031C7.19143 5.43332 7.13202 6.89157 7.19143 8.37682H14.8283H14.8337Z" fill="black"/>
<path d="M10.0488 19.0815C10.0488 18.9734 10.0434 18.8654 10.0488 18.752C10.0812 18.2659 10.038 17.8717 9.60048 17.4882C8.98477 16.9535 8.93617 16.0137 9.32503 15.3278C9.7409 14.5933 10.5348 14.2044 11.3234 14.3449C12.1227 14.4907 12.7762 15.1226 12.8896 15.9273C12.9923 16.6564 12.7546 17.2775 12.1605 17.7258C11.9931 17.85 11.9499 17.9797 11.9553 18.1687C11.9661 18.7844 11.9607 19.4001 11.9553 20.0104C11.9553 20.5721 11.5556 20.988 11.0263 20.9934C10.47 20.9934 10.0596 20.5883 10.0542 20.0212C10.0542 19.7026 10.0542 19.3893 10.0542 19.0707L10.0488 19.0815Z" fill="black"/>
</g>
<defs>
<clipPath id="clip0_243_1943">
<rect width="21.42" height="26" fill="white" transform="translate(0.289062)"/>
</clipPath>
</defs>
</svg>
