<svg width="23" height="22" viewBox="0 0 23 22" fill="none" xmlns="http://www.w3.org/2000/svg">
<g clip-path="url(#clip0_371_3368)">
<path d="M3.39657 0.0598375C5.39078 -0.109817 7.57593 0.153148 9.58712 0.0513547C10.7582 0.208286 10.8855 1.7479 9.72289 2.04056L3.47718 2.05328C2.95105 2.12539 2.61161 2.48166 2.56494 3.00759V19.023C2.61585 19.5659 2.97651 19.9307 3.52386 19.9816H19.5455C20.0716 19.9349 20.428 19.5914 20.5001 19.0697L20.5129 12.8264C20.8099 11.6642 22.3501 11.783 22.5028 12.9621C22.4137 14.9471 22.6344 17.055 22.5113 19.0273C22.418 20.4863 21.4845 21.6357 20.0461 21.9326C14.3732 22.0259 8.6579 22.0429 2.98499 21.9241C1.78847 21.6781 0.846518 20.7238 0.617395 19.5277C0.481619 14.014 0.59618 8.4832 0.557993 2.96518C0.672554 1.36618 1.80119 0.195561 3.39657 0.0598375Z" fill="#535B67"/>
<path d="M12.0024 11.9928L15.6217 11.9928C15.8253 11.9928 16.1436 12.2048 16.2751 12.366C16.7843 12.9852 16.4575 13.8038 15.7023 13.9904L9.45658 14.0032C8.93044 13.9226 8.591 13.5833 8.54433 13.0489C8.37461 11.0766 8.66738 8.8499 8.55706 6.84798C8.748 5.93608 9.96574 5.71977 10.4155 6.55532C10.4452 6.6147 10.5555 6.89039 10.5555 6.92856L10.5555 10.5465L20.8066 0.324747C21.8165 -0.515045 23.0766 0.787057 22.2068 1.77106L12.0024 11.9928Z" fill="#535B67"/>
</g>
<defs>
<clipPath id="clip0_371_3368">
<rect width="22" height="22" fill="white" transform="translate(0.550781)"/>
</clipPath>
</defs>
</svg>
