<svg width="19" height="18" viewBox="0 0 19 18" fill="none" xmlns="http://www.w3.org/2000/svg">
<path d="M9.56011 7.16945L15.5204 1.20514C15.7758 0.949438 16.0286 0.691253 16.2873 0.438854C16.4045 0.305443 16.548 0.197691 16.709 0.122444C16.8699 0.0471979 17.0448 0.00608764 17.2225 0.00166983C17.4001 -0.00274798 17.5768 0.0296651 17.7413 0.0968194C17.9058 0.163974 18.0546 0.264408 18.1782 0.391833C18.3016 0.515656 18.3982 0.663374 18.4621 0.825897C18.5261 0.988419 18.556 1.16228 18.55 1.33678C18.5441 1.51129 18.5024 1.68273 18.4275 1.84052C18.3526 1.99832 18.2461 2.13915 18.1146 2.2543C15.9807 4.39886 13.8433 6.53795 11.7023 8.67151C11.6006 8.77379 11.5031 8.88099 11.3907 9.00141C11.5064 9.12266 11.6031 9.22991 11.7056 9.33136C13.8152 11.4418 15.9259 13.5509 18.0377 15.6587C18.2412 15.8236 18.3925 16.0436 18.4734 16.2924C18.5544 16.5412 18.5615 16.8081 18.4939 17.0608C18.4335 17.2813 18.3148 17.4815 18.1503 17.6405C17.9858 17.7996 17.7815 17.9116 17.5588 17.9649C17.336 18.0181 17.1031 18.0107 16.8842 17.9434C16.6654 17.8761 16.4686 17.7513 16.3146 17.5821C15.1411 16.4274 13.9841 15.2578 12.8213 14.0931C11.7469 13.0142 10.6684 11.9337 9.56178 10.8235C9.44277 10.9373 9.33781 11.0338 9.23698 11.1344C7.10752 13.2625 4.97916 15.3917 2.8519 17.5219C2.69422 17.7052 2.49028 17.8429 2.26125 17.921C2.03223 17.999 1.78647 18.0145 1.54944 17.9657C1.34032 17.9166 1.14673 17.8163 0.986184 17.6738C0.825636 17.5314 0.703186 17.3512 0.629863 17.1497C0.55654 16.9482 0.534675 16.7316 0.56623 16.5195C0.597786 16.3074 0.681759 16.1065 0.810596 15.9349C0.903635 15.8209 1.00414 15.7132 1.11143 15.6124C3.20177 13.5229 5.2932 11.4333 7.38574 9.34375C7.50446 9.24083 7.62981 9.14575 7.76095 9.05915C7.6031 8.89419 7.50725 8.78367 7.40642 8.68304C5.27807 6.55387 3.1497 4.42469 1.02134 2.29553C0.771579 2.08823 0.608264 1.79542 0.56333 1.47432C0.518396 1.15323 0.595069 0.826947 0.778363 0.559277C0.888245 0.39869 1.03327 0.26512 1.20248 0.16871C1.37169 0.0723005 1.56065 0.0155704 1.75507 0.00277739C1.94949 -0.0100156 2.14428 0.0215032 2.32471 0.0949063C2.50514 0.16831 2.66649 0.281671 2.79654 0.42647C3.90066 1.51772 4.99404 2.61971 6.09156 3.71673L9.29895 6.92368C9.37168 6.99874 9.4502 7.06553 9.56011 7.16945Z" fill="#535B67"/>
</svg>
