<svg width="49" height="48" viewBox="0 0 49 48" fill="none" xmlns="http://www.w3.org/2000/svg">
<path d="M34.3601 2.82037C29.8554 3.12475 26.0405 6.3004 24.0925 10.2268L23.8998 10.166C21.1401 4.87998 15.9759 1.76521 9.91879 3.1349C4.08493 4.45385 0.442572 9.81086 -0.00384521 15.5737V17.6333L0.0874674 17.7855C0.665781 25.3036 7.00693 30.8939 12.2828 35.5915C15.8034 38.7265 19.4965 41.6891 23.0272 44.8242C23.4534 45.1894 24.0012 45.3213 24.5288 45.1083C26.7305 43.2719 28.9321 41.4152 31.1236 39.5483C30.0177 39.3353 29.1249 38.828 28.435 38.1482C26.9638 39.3961 25.4927 40.6339 24.0418 41.9123C23.9708 41.9225 23.4635 41.4963 23.3519 41.405C19.6994 38.483 15.7425 35.0131 12.2929 31.8375C8.16356 28.0429 3.09064 23.0715 2.8167 17.1159C2.5732 11.7386 6.04308 6.19894 11.7045 5.65106C16.7571 5.16406 20.0646 8.44117 22.0532 12.6821C22.4185 13.4532 22.6721 14.9649 23.6055 15.1577C25.3202 15.5128 25.4521 13.7677 25.9898 12.6111C28.161 7.98461 31.9759 4.63648 37.414 5.84384C42.9537 7.08163 45.7742 12.8749 45.0944 18.2116C44.8814 19.8654 44.232 21.4684 43.3392 23.0309C44.3132 23.3454 45.0843 23.9237 45.6728 24.6339C46.6975 22.899 47.4686 21.0728 47.7932 19.1349C49.2035 10.724 43.4001 2.21162 34.3601 2.82037Z" fill="#E72E68"/>
<path d="M36.3656 23.5883C40.7742 23.3429 44.9933 25.3694 47.4125 29.0697L47.6205 29.3998C48.0679 30.148 48.2566 30.7433 48.1859 31.3412C48.1066 32.0119 47.7027 32.6456 47.1029 33.4672L47.1019 33.4662C42.0997 40.3659 31.6332 40.1715 26.9291 33.0541C26.3238 32.1411 26.0567 31.4591 26.1332 30.7719C26.2084 30.0966 26.6132 29.4572 27.2181 28.6254C29.301 25.7589 32.6925 23.8096 36.265 23.5824L36.3549 23.5765L36.3656 23.5883ZM27.8939 31.0668C27.894 31.1001 27.9086 31.1641 27.9486 31.2611C27.9868 31.3536 28.0414 31.4587 28.1039 31.5677C28.2287 31.7857 28.3751 32.0025 28.4681 32.142H28.4691C31.8833 37.2184 39.0917 38.2932 43.8295 34.3724C44.2262 34.0402 44.7698 33.5102 45.2621 32.9427C45.7577 32.3714 46.1846 31.7811 46.3695 31.3265C46.4528 31.1181 46.4199 30.9023 46.3129 30.6664C46.2029 30.4242 46.0319 30.1952 45.8724 29.9613V29.9603C43.8124 26.8952 40.197 25.1317 36.4926 25.3607L36.4808 25.3617H36.4701C33.41 25.5544 30.4871 27.1768 28.6879 29.642L28.6859 29.6439C28.566 29.8039 28.3606 30.0897 28.1869 30.3793C28.0999 30.5242 28.0236 30.6662 27.9701 30.7914C27.914 30.9225 27.8926 31.0122 27.8939 31.0609V31.0668Z" fill="#E72E68" stroke="#E72E68" stroke-width="0.4"/>
<path d="M40.2425 31.0461C40.2425 32.7502 38.8644 34.1282 37.1604 34.1282C35.4563 34.1282 34.0782 32.7502 34.0782 31.0461C34.0782 29.3421 35.4563 27.964 37.1604 27.964C38.8644 27.964 40.2425 29.3421 40.2425 31.0461Z" fill="#E72E68"/>
</svg>
