<svg width="100" height="100" viewBox="0 0 100 100" fill="none" xmlns="http://www.w3.org/2000/svg">
<path d="M96.4803 49.9987C98.0246 48.2003 99.1069 46.0522 99.6331 43.7408C100.159 41.4295 100.114 39.0246 99.5001 36.7348C98.8865 34.4451 97.7235 32.3396 96.112 30.6011C94.5005 28.8626 92.4892 27.5435 90.2525 26.7583C90.6907 24.4285 90.5539 22.027 89.8539 19.7621C89.1538 17.4972 87.9117 15.4373 86.2353 13.7611C84.559 12.0849 82.4989 10.8431 80.2339 10.1433C77.9689 9.4436 75.5674 9.30709 73.2376 9.74564C72.453 7.50842 71.1342 5.49652 69.3957 3.88462C67.6571 2.27272 65.5514 1.10954 63.2613 0.496083C60.9712 -0.117379 58.566 -0.162585 56.2545 0.364389C53.943 0.891363 51.7951 1.97459 49.9972 3.52002C48.1988 1.97565 46.0507 0.893402 43.7393 0.367156C41.4279 -0.15909 39.023 -0.113438 36.7333 0.50015C34.4435 1.11374 32.3381 2.27673 30.5995 3.88824C28.861 5.49975 27.5419 7.5111 26.7567 9.74781C24.4271 9.30996 22.0259 9.44709 19.7612 10.1473C17.4966 10.8475 15.437 12.0897 13.7611 13.766C12.0852 15.4423 10.8436 17.5022 10.144 19.767C9.44432 22.0318 9.30781 24.4331 9.74625 26.7626C7.50954 27.5478 5.49818 28.8669 3.88667 30.6054C2.27516 32.344 1.11216 34.4494 0.498574 36.7392C-0.115014 39.0289 -0.160672 41.4338 0.365574 43.7452C0.89182 46.0566 1.97409 48.2046 3.51846 50.0031C1.97362 51.8014 0.891017 53.9497 0.364622 56.2613C-0.161774 58.5729 -0.116076 60.9781 0.497781 63.268C1.11164 65.558 2.27508 67.6635 3.88714 69.4019C5.49921 71.1403 7.51119 72.459 9.74842 73.2435C9.3096 75.5731 9.44595 77.9746 10.1457 80.2395C10.8454 82.5044 12.0873 84.5643 13.7637 86.2404C15.44 87.9165 17.5001 89.1582 19.7651 89.8576C22.0301 90.5571 24.4316 90.6931 26.7611 90.254C27.5463 92.4907 28.8654 94.5021 30.6039 96.1136C32.3424 97.7251 34.4479 98.8881 36.7376 99.5017C39.0274 100.115 41.4322 100.161 43.7436 99.6347C46.055 99.1084 48.2031 98.0262 50.0015 96.4818C51.7999 98.0266 53.9481 99.1092 56.2598 99.6356C58.5714 100.162 60.9765 100.116 63.2665 99.5025C65.5564 98.8886 67.662 97.7252 69.4004 96.1131C71.1387 94.501 72.4574 92.4891 73.242 90.2518C75.5716 90.6905 77.9731 90.5541 80.2381 89.8544C82.503 89.1546 84.563 87.9127 86.2393 86.2365C87.9155 84.5602 89.1574 82.5003 89.8571 80.2353C90.5569 77.9703 90.6933 75.5688 90.2546 73.2392C92.4915 72.4542 94.503 71.1351 96.1146 69.3965C97.7262 67.6579 98.8892 65.5523 99.5026 63.2624C100.116 60.9725 100.161 58.5675 99.6346 56.2562C99.1079 53.9448 98.0252 51.7968 96.4803 49.9987Z" fill="#1C8FED"/>
<path d="M41.0236 69.0851L27.1292 55.1993C26.6018 54.6711 26.3057 53.9553 26.3057 53.209C26.3057 52.4626 26.6018 51.7468 27.1292 51.2186L28.8172 49.5284C29.3454 49.0011 30.0612 48.7049 30.8075 48.7049C31.5539 48.7049 32.2697 49.0011 32.7979 49.5284L42.898 59.622L66.6845 34.3446C67.1964 33.8016 67.9028 33.4838 68.6487 33.461C69.3946 33.4383 70.1191 33.7124 70.663 34.2233L72.3966 35.8593C72.9403 36.3712 73.2585 37.0781 73.2813 37.8246C73.304 38.571 73.0295 39.2959 72.5179 39.84L45.0715 69.0222C44.813 69.2976 44.5019 69.5183 44.1565 69.671C43.8111 69.8238 43.4385 69.9055 43.0608 69.9114C42.6832 69.9172 42.3083 69.8471 41.9583 69.7052C41.6083 69.5632 41.2904 69.3523 41.0236 69.0851Z" fill="white"/>
</svg>
