<svg width="24" height="24" viewBox="0 0 24 24" fill="none" xmlns="http://www.w3.org/2000/svg">
<path d="M4.80957 20.7749C4.87883 21.0538 5.05286 21.3027 5.2959 21.4243H5.29688L5.3125 21.4321C5.32227 21.4364 5.33527 21.4408 5.34961 21.4468C5.37819 21.4587 5.41294 21.4732 5.44727 21.4868C5.48179 21.5005 5.51505 21.5137 5.54004 21.5229C5.54773 21.5258 5.5543 21.5279 5.55957 21.5298H8.45801V16.7622C8.45813 16.3719 8.69419 15.9507 8.98438 15.6089C9.27744 15.2637 9.65359 14.9663 9.98145 14.8325L10.1543 14.7749C10.343 14.7211 10.578 14.6794 10.834 14.6499C11.1787 14.6101 11.5735 14.5895 11.9668 14.5874C12.3599 14.5853 12.7543 14.6026 13.0996 14.6382C13.4418 14.6735 13.7474 14.7278 13.9551 14.8071H13.9541C14.3132 14.9436 14.7064 15.242 15.0088 15.5972C15.3093 15.95 15.5429 16.3853 15.543 16.8042V21.5269H18.4434C18.449 21.5248 18.4558 21.5221 18.4639 21.519C18.4912 21.5086 18.5277 21.4935 18.5654 21.478C18.6434 21.4461 18.7173 21.4148 18.7334 21.4067C18.986 21.2705 19.166 20.9874 19.1943 20.6968C19.2138 18.2008 19.1543 15.6791 19.2246 13.1792L19.2256 13.1558L19.2334 13.1333C19.3203 12.8846 19.4695 12.7294 19.6592 12.6421C19.8407 12.5586 20.0474 12.5434 20.2412 12.5444C20.3391 12.5449 20.4396 12.549 20.5352 12.5532C20.632 12.5576 20.7248 12.562 20.8145 12.561C20.9959 12.5592 21.1466 12.5377 21.2656 12.4761L21.3281 12.438C21.6217 12.2309 21.6369 11.7775 21.3477 11.5005L21.3457 11.4985L12.4824 2.63721C12.2833 2.47388 12.1329 2.41162 12 2.41162C11.8671 2.41177 11.7167 2.47373 11.5176 2.63721L2.6582 11.4985L2.65625 11.5005C2.46157 11.6888 2.41079 11.94 2.47266 12.1489C2.5337 12.355 2.70502 12.5245 2.97656 12.5542C3.13048 12.5709 3.30263 12.5646 3.48828 12.5571C3.66834 12.5499 3.86265 12.5422 4.04102 12.564C4.2205 12.5859 4.40206 12.6387 4.5459 12.7681C4.69214 12.8996 4.78049 13.0924 4.80859 13.3521L4.80957 13.3599V20.7749ZM23.0996 12.4663L23.0928 12.4878C22.896 13.1335 22.4861 13.6925 21.835 13.9644H21.834C21.7818 13.9857 21.6676 14.0279 21.5566 14.0649C21.5012 14.0835 21.4446 14.1014 21.3955 14.1147C21.3533 14.1263 21.2975 14.14 21.2539 14.1401H20.7812L20.7764 20.8784V20.8911L20.7744 20.9038C20.6422 21.6681 20.328 22.1899 19.8857 22.5356C19.4473 22.8784 18.8985 23.0364 18.3164 23.104C17.7346 23.1715 17.1042 23.1512 16.4971 23.1265C15.8846 23.1016 15.2973 23.072 14.7812 23.1177L14.7725 23.1187H14.7637C14.3375 23.1053 13.9942 22.7776 13.9541 22.3579V22.353C13.8986 21.4905 13.935 20.5833 13.9668 19.689C13.9987 18.7912 14.0258 17.9058 13.9541 17.0728V17.0718C13.9196 16.665 13.6594 16.348 13.2656 16.2456H13.2646C13.1922 16.2266 13.0175 16.2085 12.7734 16.1968C12.5355 16.1854 12.2468 16.1801 11.958 16.1812C11.6691 16.1822 11.3811 16.1905 11.1455 16.2046C10.9026 16.2191 10.7349 16.2393 10.6699 16.2603C10.3779 16.3551 10.1315 16.6177 10.0527 16.9263C10.0057 17.5656 10.013 18.2294 10.0332 18.9028L10.0781 20.2642C10.0938 20.8315 10.0986 21.3966 10.0674 21.9458L10.0449 22.2729C10.0268 22.4882 9.96456 22.6846 9.83691 22.8364C9.70721 22.9906 9.52208 23.0832 9.29004 23.1147L9.27441 23.1177L9.25781 23.1157C8.73433 23.0711 8.13543 23.1015 7.51074 23.1265C6.89166 23.1512 6.24935 23.17 5.6582 23.0981C5.06664 23.0262 4.50985 22.8612 4.07227 22.5054C3.63117 22.1465 3.3269 21.6072 3.21484 20.8208L3.21387 20.8101V14.1401H2.74316C2.00302 14.1401 1.3941 13.5693 1.08301 12.896C0.77156 12.2218 0.726996 11.379 1.19531 10.7905L1.2002 10.7847L1.20605 10.7798C4.36578 7.53425 7.57188 4.30535 10.8359 1.16455L10.8486 1.15283L10.8633 1.14404C11.5745 0.718687 12.618 0.753334 13.2998 1.25439L13.4316 1.36084L13.4375 1.3667L22.585 10.5122L22.5918 10.519C22.8343 10.7972 22.9828 11.1222 23.0918 11.4536L23.0996 11.4761V12.4663Z" fill="black" stroke="black" stroke-width="0.3"/>
</svg>
