<svg width="120" height="44" viewBox="0 0 120 44" fill="none" xmlns="http://www.w3.org/2000/svg">
<path d="M62.1081 27.6148C62.1081 28.0308 61.7338 28.405 61.3178 28.405C60.9436 28.405 60.6938 28.197 60.5275 27.8646L59.4253 25.3898H52.376L51.336 27.8646C51.1902 28.197 50.9199 28.405 50.5661 28.405C50.1297 28.405 49.7759 28.0308 49.7759 27.6148C49.7759 27.469 49.8177 27.3027 49.9003 27.0947L55.161 14.7848C55.3273 14.4105 55.5771 14.223 55.9309 14.223C56.2847 14.223 56.5336 14.4096 56.7007 14.7848L61.9614 27.0947C62.0654 27.3027 62.1072 27.469 62.1072 27.6148H62.1081ZM52.9796 23.9346H58.8021L55.9326 16.6569L52.9796 23.9346Z" fill="white"/>
<path d="M65.5393 21.314C65.5393 17.3218 68.6586 14.223 72.6722 14.223C74.8136 14.223 76.9346 15.2212 78.0787 16.76C78.2449 16.9884 78.3284 17.1547 78.3284 17.3627C78.3284 17.7369 77.996 18.0907 77.5586 18.0907C77.2884 18.0907 77.0804 18.0072 76.8101 17.696C75.5621 16.3235 74.3354 15.7208 72.6722 15.7208C69.5324 15.7208 67.2239 18.0916 67.2239 21.2935C67.2239 24.4955 69.5733 26.9498 72.7548 26.9498C74.6678 26.9498 76.3523 26.0769 77.3293 24.6208V22.6456H73.4197C72.9415 22.6456 72.5673 22.3132 72.5673 21.9176C72.5673 21.5016 72.9415 21.1895 73.4197 21.1895H78.0982C78.5765 21.1895 78.9507 21.5433 78.9507 22.042V24.267C78.9507 24.6831 78.8467 25.0369 78.6182 25.3898C77.3497 27.261 75.0625 28.405 72.6713 28.405C68.6577 28.405 65.5385 25.3071 65.5385 21.314H65.5393Z" fill="white"/>
<path d="M84.0256 27.5525V15.0754C84.0256 14.5972 84.3581 14.223 84.8363 14.223C85.3146 14.223 85.6471 14.5972 85.6471 15.0754V27.5525C85.6471 28.0308 85.2933 28.405 84.8363 28.405C84.3794 28.405 84.0256 28.0308 84.0256 27.5525Z" fill="white"/>
<path d="M91.4909 27.3241V15.0754C91.4909 14.5972 91.8233 14.223 92.3016 14.223C92.7798 14.223 93.1123 14.5972 93.1123 15.0754V26.7205H98.9553C99.3917 26.7205 99.7038 27.0325 99.7038 27.4485C99.7038 27.8646 99.3917 28.1766 98.9553 28.1766H92.3425C91.8438 28.1766 91.49 27.8023 91.49 27.3241H91.4909Z" fill="white"/>
<path d="M104.092 27.5525V15.0754C104.092 14.5972 104.425 14.223 104.903 14.223C105.381 14.223 105.714 14.5972 105.714 15.0754V27.5525C105.714 28.0308 105.36 28.405 104.903 28.405C104.446 28.405 104.092 28.0308 104.092 27.5525Z" fill="white"/>
<path d="M110.934 26.0556C110.809 25.9098 110.746 25.7436 110.746 25.5569C110.746 25.1409 111.1 24.8084 111.516 24.8084C111.766 24.8084 111.974 24.9124 112.14 25.1204C113.055 26.2849 114.219 26.9089 115.551 26.9089C117.214 26.9089 118.316 25.9729 118.316 24.6217C118.316 23.603 117.796 23.0412 116.029 22.2091L114.49 21.4811C112.307 20.4411 111.391 19.3397 111.391 17.8009C111.391 15.7421 113.159 14.2238 115.529 14.2238C117.068 14.2238 118.358 14.8061 119.314 15.8666C119.542 16.1164 119.605 16.3448 119.605 16.5324C119.605 16.9067 119.231 17.2604 118.835 17.2604C118.627 17.2604 118.441 17.1564 118.274 16.9902C117.525 16.1582 116.569 15.7217 115.508 15.7217C114.052 15.7217 113.075 16.512 113.075 17.7183C113.075 18.6952 113.512 19.1734 115.28 20.0268L116.798 20.7549C119.107 21.8571 120 22.9381 120 24.5808C120 26.8263 118.191 28.4068 115.57 28.4068C113.803 28.4068 112.015 27.5125 110.933 26.0573L110.934 26.0556Z" fill="white"/>
<path d="M34.0826 4.2011H9.09108C6.39039 4.2011 4.20105 6.39044 4.20105 9.09113V34.0826C4.20105 36.7833 6.39039 38.9727 9.09108 38.9727H34.0826C36.7833 38.9727 38.9726 36.7833 38.9726 34.0826V9.09113C38.9726 6.39044 36.7833 4.2011 34.0826 4.2011Z" fill="url(#paint0_linear_194_2119)"/>
<path d="M43.1729 8.25286V8.24842C43.1729 7.11769 42.9418 6.02786 42.5231 5.03936C41.8946 3.55484 40.8519 2.30056 39.5363 1.41162C38.8785 0.967154 38.1504 0.613357 37.3726 0.371567C36.5966 0.129777 35.7707 -7.62939e-06 34.9236 -7.62939e-06H34.9209C34.92 -7.62939e-06 34.9191 -7.62939e-06 34.9165 -7.62939e-06H8.25109C7.11948 -7.62939e-06 6.02876 0.231115 5.03937 0.649804C3.55485 1.27828 2.30056 2.321 1.41163 3.63663C0.967161 4.29444 0.613365 5.02247 0.371575 5.80029C0.129784 6.57722 0 7.40304 0 8.2502V8.25109V8.25286V34.9227C0 36.0543 0.231123 37.145 0.649811 38.1335C1.27829 39.618 2.32101 40.8723 3.63663 41.7613C4.29444 42.2057 5.02248 42.5595 5.8003 42.8013C6.56034 43.0378 7.36749 43.1658 8.19598 43.172H8.20576L34.92 43.1729H34.928C36.057 43.172 37.1459 42.9409 38.1335 42.5231C39.6181 41.8946 40.8723 40.8519 41.7613 39.5363C42.2057 38.8785 42.5595 38.1504 42.8013 37.3726C43.0405 36.6046 43.1693 35.7894 43.172 34.952V34.9378V8.25286H43.1729ZM40.347 38.5807C39.6412 39.6252 38.6447 40.4528 37.4677 40.9506C36.6855 41.2821 35.8205 41.4653 34.9218 41.4653H34.9191H8.25287H8.25109C7.57728 41.4653 6.92125 41.3621 6.3061 41.171C5.69007 40.979 5.11315 40.6999 4.59135 40.347C3.54685 39.6412 2.71925 38.6447 2.22145 37.4677C1.88988 36.6854 1.70676 35.8205 1.70676 34.9218V8.25109C1.70676 7.57727 1.80987 6.92213 2.00099 6.30699C2.193 5.69095 2.47213 5.11404 2.82504 4.59223C3.53085 3.54773 4.52646 2.72013 5.7043 2.22233C6.48656 1.89076 7.35149 1.70764 8.24932 1.70764H34.9218C35.5956 1.70764 36.2508 1.81075 36.8659 2.00187C37.4819 2.19388 38.0589 2.47301 38.5807 2.82592C39.6252 3.53173 40.4528 4.52734 40.9506 5.70518C41.2821 6.48744 41.4653 7.35237 41.4653 8.25109V8.25553V34.9174C41.4653 34.9174 41.4653 34.9174 41.4653 34.9182V34.9218C41.4653 35.5956 41.3621 36.2516 41.171 36.8659C40.979 37.4819 40.6999 38.0589 40.347 38.5807Z" fill="white"/>
<path d="M33.8267 12.5695C33.5315 11.7926 33.0791 11.0477 32.4684 10.3534C31.7937 9.58538 31.0541 9.01735 30.2745 8.64577C29.4958 8.27331 28.6797 8.10175 27.8761 8.10263C26.7836 8.10263 25.7214 8.41376 24.7409 8.92223C23.7115 9.45737 22.7648 10.2094 21.938 11.0903C21.5665 10.685 21.1673 10.309 20.7389 9.97295C20.1015 9.47337 19.4019 9.06091 18.649 8.772C17.8969 8.4831 17.0907 8.32042 16.2533 8.32042C15.4524 8.32042 14.6248 8.47065 13.7981 8.78889C12.9705 9.10713 12.1438 9.59338 11.3286 10.2574C10.3686 11.0388 9.66007 12.0184 9.20227 13.1127C8.74358 14.2078 8.53113 15.415 8.53113 16.6755C8.53379 19.2463 9.40406 22.0482 10.9579 24.7266C12.5144 27.4041 14.7635 29.9615 17.5752 32.0079C19.3255 33.2817 21.2945 34.3555 23.4483 35.1316C23.8795 35.2872 24.3551 35.0631 24.5097 34.632C24.6653 34.2009 24.4413 33.7253 24.0102 33.5706C22.0127 32.8515 20.1824 31.8532 18.5512 30.6665C15.9315 28.7606 13.8292 26.3676 12.3918 23.8937C10.9526 21.4207 10.1872 18.8667 10.189 16.6755C10.189 15.6008 10.3703 14.615 10.7312 13.7536C11.093 12.8922 11.63 12.1517 12.3749 11.5437C13.0718 10.9757 13.7465 10.5863 14.3928 10.3374C15.039 10.0885 15.6559 9.98006 16.2515 9.97918C17.08 9.97918 17.8721 10.1916 18.6241 10.5765C19.4419 10.9943 20.2055 11.6237 20.8687 12.3864C19.8819 13.7607 19.1619 15.3137 18.8686 16.8578C18.8321 17.048 18.8152 17.2391 18.8152 17.4258C18.8152 18.2454 19.1477 19.0028 19.6899 19.553C19.9611 19.8286 20.2873 20.0544 20.6526 20.2108C21.018 20.3673 21.4234 20.4544 21.8456 20.4544C22.2678 20.4544 22.6741 20.3673 23.0385 20.2108C23.587 19.9752 24.0448 19.5868 24.3666 19.1041C24.6884 18.6214 24.876 18.0409 24.876 17.4267C24.876 17.2391 24.8582 17.0489 24.8226 16.8586C24.6262 15.8177 24.2688 14.7776 23.779 13.7954C23.5408 13.3189 23.2714 12.8558 22.9728 12.4122C23.3959 11.9402 23.8546 11.5099 24.3346 11.1428C24.9026 10.7072 25.4991 10.3596 26.0965 10.1232C26.6947 9.88673 27.2912 9.76228 27.8717 9.76228C28.4424 9.76228 28.9997 9.87961 29.5553 10.1445C30.1109 10.4094 30.6692 10.8263 31.2167 11.4495C31.7074 12.0086 32.0488 12.5793 32.2701 13.1607C32.4915 13.7429 32.5955 14.3394 32.5955 14.959C32.5955 15.5244 32.5075 16.1093 32.3368 16.7093C32.039 17.7591 31.4825 18.8534 30.7198 19.9379C29.5767 21.5656 27.9721 23.1656 26.14 24.5808C24.3079 25.9969 22.2474 27.229 20.2028 28.1419C19.7842 28.3286 19.5966 28.8193 19.7833 29.2379C19.9699 29.6566 20.4606 29.8442 20.8793 29.6575C24.1879 28.1783 27.4797 25.9498 29.9856 23.3879C31.2381 22.1051 32.2941 20.738 33.048 19.3228C33.4249 18.6152 33.7253 17.8943 33.9333 17.1644C34.1405 16.4355 34.2551 15.6977 34.2551 14.9599C34.2551 14.1527 34.1173 13.3473 33.8213 12.5713L33.8267 12.5695ZM23.1968 17.1662C23.2137 17.2551 23.2217 17.3413 23.2217 17.4267C23.2217 17.7947 23.0723 18.1369 22.8243 18.3894C22.7008 18.5147 22.5532 18.617 22.3896 18.6863C22.2261 18.7565 22.0465 18.7956 21.85 18.7956C21.6536 18.7956 21.474 18.7565 21.3105 18.6863C21.066 18.5814 20.8562 18.4045 20.7095 18.184C20.5629 17.9627 20.4793 17.7031 20.4793 17.4267C20.4793 17.3413 20.4873 17.2551 20.5042 17.1671C20.6642 16.3146 21.002 15.4088 21.4758 14.5385C21.6082 14.2941 21.7523 14.0532 21.9052 13.8167C22.5345 14.8674 22.9852 16.0364 23.1977 17.1662H23.1968Z" fill="white"/>
<defs>
<linearGradient id="paint0_linear_194_2119" x1="5.49178" y1="6.13008" x2="37.4303" y2="36.801" gradientUnits="userSpaceOnUse">
<stop stop-color="#FB00FF"/>
<stop offset="1" stop-color="#FFDE12"/>
</linearGradient>
</defs>
</svg>
