<svg width="8" height="16" viewBox="0 0 8 16" fill="none" xmlns="http://www.w3.org/2000/svg">
<path d="M0.383465 10.6255C0.566446 10.595 0.733854 10.7133 0.870116 10.8163L4.01583 13.9042L7.31727 10.6828C7.73774 10.4652 8.16989 10.9347 7.9324 11.3431L4.25332 14.9501C4.05476 15.0646 3.79002 15.0188 3.6304 14.8623L0.107047 11.3965C-0.134332 11.137 0.0642217 10.6828 0.387358 10.6255H0.383465Z" fill="black"/>
<path d="M0.383465 5.37456C0.566446 5.4051 0.733854 5.28677 0.870116 5.18372L4.01583 2.09581L7.31727 5.31731C7.73774 5.53487 8.16989 5.06539 7.9324 4.65698L4.25332 1.04997C4.05476 0.935462 3.79002 0.981266 3.6304 1.13776L0.107047 4.60354C-0.134332 4.86309 0.0642217 5.31731 0.387358 5.37456H0.383465Z" fill="black"/>
</svg>
