<svg width="49" height="49" viewBox="0 0 49 49" fill="none" xmlns="http://www.w3.org/2000/svg">
<path d="M37.9904 8.50574H45.3848C45.9719 8.50574 46.8288 9.28327 47.0668 9.82277C47.3683 10.521 47.3524 13.3137 47.2731 14.1705C46.9557 17.36 42.5921 15.9001 40.4975 16.2968C40.3547 16.3444 38.3236 17.8836 38.1808 18.0423C38.1015 18.1375 38.0063 18.201 37.9904 18.3438V45.1444C37.8317 47.0803 36.4036 48.5877 34.4519 48.7623H13.6493C12.1101 48.7623 10.1108 46.9533 10.1108 45.43V30.9586H2.71637C2.06579 30.9586 1.19307 30.1018 0.970918 29.4988C0.732902 28.8006 0.717034 25.3573 0.970918 24.6591C1.1772 24.0562 2.06579 23.1993 2.71637 23.1993H10.1108V4.11037C10.1266 2.60293 12.0625 0.809877 13.5699 0.778141H34.2615C35.88 0.651199 37.9746 2.50773 37.9746 4.11037V8.50574H37.9904ZM36.4354 5.41153C36.6099 3.93583 36.0228 2.55533 34.436 2.33318H13.9349C12.1577 2.44426 11.4912 3.74541 11.6658 5.41153H36.4354ZM36.4354 6.96657H11.6658V23.2152C12.8083 23.1041 13.9984 23.3421 14.522 24.4687C14.8711 25.2304 14.8393 27.7533 14.76 28.6895C14.6331 30.4667 13.3319 31.1332 11.6658 30.9586V33.672L14.6013 32.1011C15.3154 31.6727 19.7425 30.5302 19.8853 29.9431C19.5679 29.4988 19.0602 29.1656 18.6793 28.7371C15.2995 25.0717 13.4112 18.4072 15.9977 13.8691C19.9488 6.9507 30.3263 7.99798 32.8493 15.5193C34.2298 19.6291 32.405 25.3732 29.6122 28.5309C29.1838 29.0228 28.6126 29.4195 28.2159 29.9272C28.327 30.5937 32.7858 31.6568 33.4998 32.1011L36.4354 33.672V16.2492C35.2929 16.3603 34.1028 16.1223 33.5792 14.9957C33.2301 14.234 33.2618 11.711 33.3412 10.7748C33.4681 8.99765 34.7693 8.3312 36.4354 8.50574V6.9507V6.96657ZM37.9904 16.2492C38.5775 15.916 39.2598 15.1385 39.8311 14.8529C40.7197 14.4086 43.7822 14.8529 45.004 14.6942C45.2737 14.6624 45.5435 14.5514 45.6546 14.2816C45.7815 13.9801 45.7815 11.235 45.7339 10.7748C45.6863 10.3147 45.3848 10.0449 44.9088 10.0449C41.9415 10.2512 38.6251 9.77517 35.7055 10.0449C35.2136 10.0925 34.9438 10.2512 34.8803 10.7748C34.8327 11.235 34.8327 13.9801 34.9597 14.2816C35.3088 15.0909 36.9749 14.4244 37.6255 14.8053C38.1174 15.0909 37.9428 15.7732 37.9746 16.2492H37.9904ZM31.5957 20.8985C32.0717 18.3279 31.7385 15.7414 30.0407 13.6945C26.883 9.88624 21.2023 9.88624 18.0446 13.6945C16.3785 15.7097 15.9977 18.2803 16.4896 20.8033C19.203 20.8509 21.5355 19.0737 22.6939 16.7094C22.9319 16.2175 23.2175 14.9639 23.6618 14.7894C24.7408 14.3451 24.7726 15.5034 25.0741 16.1381C26.3435 18.8833 28.3587 20.8667 31.5798 20.9143L31.5957 20.8985ZM24.1537 17.6138C23.9792 17.4552 23.8046 18.0423 23.7094 18.1851C22.0592 20.7081 20.0281 22.0886 16.9974 22.5011C18.0922 26.9282 22.7098 32.593 27.4542 28.5943C29.2473 27.0869 30.5326 24.7385 31.1355 22.5011C28.1683 22.1203 25.3597 20.4066 24.1696 17.6138H24.1537ZM2.93852 24.7861C2.52596 24.913 2.41489 25.1828 2.38315 25.5795C2.31968 26.2618 2.28794 28.1183 2.38315 28.7689C2.43075 29.0545 2.58943 29.2608 2.85918 29.356L12.4909 29.4036C12.7765 29.4036 13.078 29.1973 13.1732 28.9276C13.2843 28.5943 13.2843 25.8333 13.205 25.3891C13.1574 25.1034 12.9987 24.8972 12.7289 24.8019H2.93852V24.7861ZM26.9465 30.8793C26.8036 30.8 25.804 31.2601 25.5342 31.3236C23.9633 31.7044 22.7098 31.4188 21.2341 30.8793C20.9643 31.0538 20.7898 31.3395 20.5359 31.5457C19.8536 32.1011 19.3458 31.8631 20.2027 32.7517C22.3607 34.9732 26.5815 34.5448 28.4222 32.0852C27.9303 31.7044 27.2321 31.4981 26.9623 30.8952L26.9465 30.8793ZM11.6658 35.8459V42.5738H36.4354V35.8459C34.7693 33.9576 32.2463 33.2277 29.9137 32.4978C27.9937 36.195 21.9164 36.5917 19.1078 33.8148C18.8698 33.5768 18.2351 32.5137 18.0129 32.5295C15.7755 33.3388 13.2843 33.9894 11.6499 35.8459H11.6658ZM36.4354 44.113H11.6658C11.4912 45.5887 12.0784 46.9692 13.6651 47.1914H34.1663C35.9435 47.0803 36.6099 45.7791 36.4354 44.113Z" fill="#E72E68"/>
<path d="M13.7762 38.7181H18.7746C19.6314 38.8451 19.6314 40.1145 18.7746 40.2414C18.0129 40.3525 14.6172 40.3684 13.8556 40.2414C13.0463 40.1145 12.9828 38.9562 13.7762 38.7181Z" fill="#E72E68"/>
<path d="M13.7762 35.6238C14.1253 35.5445 16.204 35.5445 16.5372 35.6238C17.2989 35.7984 17.2989 37.0202 16.4579 37.1471C16.0453 37.2106 14.1571 37.2106 13.7762 37.1471C13.0304 36.9885 13.0304 35.7984 13.7762 35.6397V35.6238Z" fill="#E72E68"/>
<path d="M37.2129 13.1709C37.6511 13.1709 38.0063 12.8157 38.0063 12.3775C38.0063 11.9393 37.6511 11.5841 37.2129 11.5841C36.7748 11.5841 36.4196 11.9393 36.4196 12.3775C36.4196 12.8157 36.7748 13.1709 37.2129 13.1709Z" fill="#E72E68"/>
<path d="M40.3071 13.1709C40.7453 13.1709 41.1005 12.8157 41.1005 12.3775C41.1005 11.9393 40.7453 11.5841 40.3071 11.5841C39.8689 11.5841 39.5137 11.9393 39.5137 12.3775C39.5137 12.8157 39.8689 13.1709 40.3071 13.1709Z" fill="#E72E68"/>
<path d="M43.4014 13.1709C43.8395 13.1709 44.1947 12.8157 44.1947 12.3775C44.1947 11.9393 43.8395 11.5841 43.4014 11.5841C42.9632 11.5841 42.608 11.9393 42.608 12.3775C42.608 12.8157 42.9632 13.1709 43.4014 13.1709Z" fill="#E72E68"/>
<path d="M4.69985 27.8802C5.13803 27.8802 5.49324 27.525 5.49324 27.0868C5.49324 26.6487 5.13803 26.2935 4.69985 26.2935C4.26168 26.2935 3.90646 26.6487 3.90646 27.0868C3.90646 27.525 4.26168 27.8802 4.69985 27.8802Z" fill="#E72E68"/>
<path d="M7.79406 27.8802C8.23224 27.8802 8.58745 27.525 8.58745 27.0868C8.58745 26.6487 8.23224 26.2935 7.79406 26.2935C7.35588 26.2935 7.00067 26.6487 7.00067 27.0868C7.00067 27.525 7.35588 27.8802 7.79406 27.8802Z" fill="#E72E68"/>
<path d="M10.8883 27.8802C11.3264 27.8802 11.6817 27.525 11.6817 27.0868C11.6817 26.6487 11.3264 26.2935 10.8883 26.2935C10.4501 26.2935 10.0949 26.6487 10.0949 27.0868C10.0949 27.525 10.4501 27.8802 10.8883 27.8802Z" fill="#E72E68"/>
</svg>
