<svg width="36" height="36" viewBox="0 0 36 36" fill="none" xmlns="http://www.w3.org/2000/svg">
<g clip-path="url(#clip0_243_1902)">
<path d="M17.3802 0C17.7927 0 18.2051 0 18.6175 0C18.6513 0.00450732 18.6851 0.013522 18.7189 0.0157756C19.4288 0.0405659 20.132 0.112683 20.8329 0.223113C22.0115 0.407913 23.1586 0.70765 24.2764 1.12683C27.6862 2.40916 30.4673 4.52761 32.6015 7.47765C34.6365 10.2925 35.7521 13.4476 35.9662 16.9182C35.9752 17.0737 35.9887 17.2292 36 17.3847V18.622C35.9955 18.6558 35.9865 18.6896 35.9842 18.7234C35.9594 19.4333 35.8873 20.1365 35.7769 20.8374C35.5921 22.016 35.2946 23.1654 34.8732 24.281C33.415 28.128 30.9383 31.1479 27.4496 33.3226C24.8917 34.916 22.0949 35.7882 19.084 35.9684C18.9285 35.9775 18.773 35.991 18.6175 36.0023H17.3802C17.3464 35.9977 17.3126 35.9887 17.2788 35.9865C16.5689 35.9617 15.8658 35.8896 15.1649 35.7791C13.9862 35.5943 12.8391 35.2946 11.7213 34.8754C8.31151 33.5931 5.53049 31.4746 3.39627 28.5246C1.36347 25.7098 0.247903 22.5546 0.0338049 19.084C0.0247903 18.9285 0.0112683 18.773 0 18.6175C0 18.2051 0 17.7927 0 17.3802C0.00450732 17.3442 0.013522 17.3059 0.0157756 17.2698C0.0608489 16.7402 0.0901465 16.2106 0.150995 15.6832C0.272693 14.6308 0.507074 13.5986 0.827094 12.589C1.61137 10.1189 2.8644 7.91486 4.59522 5.98573C6.04883 4.3676 7.73457 3.04695 9.6637 2.04182C11.9399 0.856392 14.3603 0.182547 16.925 0.0338049C17.0783 0.0247903 17.2292 0.0112683 17.3802 0ZM1.68123 17.9977C1.68123 26.9966 9.00113 34.3188 18 34.3188C26.9966 34.3188 34.3075 27.0101 34.3188 18.0068C34.33 9.01465 27.0056 1.68574 18.0045 1.68123C9.00563 1.67898 1.68349 8.99887 1.68123 17.9977Z" fill="black"/>
<path d="M28.8429 28.1235H27.1707C27.1054 25.3289 26.0552 22.9896 23.9345 21.1642C22.2059 19.679 20.1799 18.9466 17.8992 18.9759C15.4021 19.0074 13.2566 19.9224 11.501 21.6915C9.74315 23.4629 8.88 25.6242 8.83718 28.1212H7.1582C7.18299 25.6377 7.93346 23.4066 9.4637 21.4526C10.9917 19.501 12.9772 18.2299 15.3773 17.6034C13.5473 16.5306 12.5016 14.9643 12.407 12.8301C12.3394 11.2593 12.8712 9.88684 13.962 8.75325C16.2044 6.42747 19.8869 6.45676 22.0932 8.80508C22.6904 9.44287 23.1186 10.1776 23.3688 11.0159C23.619 11.852 23.6708 12.7039 23.5288 13.5648C23.3868 14.4235 23.06 15.2055 22.5485 15.9109C22.0369 16.6185 21.3923 17.1752 20.6171 17.5944C23.5851 18.3989 25.8636 20.0937 27.4074 22.7417C28.3719 24.3982 28.8339 26.1966 28.8429 28.1235ZM18.0006 8.71268C15.8348 8.71493 14.0769 10.475 14.0815 12.6386C14.0837 14.8043 15.8438 16.5577 18.0096 16.5577C20.1663 16.5577 21.9242 14.7976 21.9242 12.6363C21.9242 10.4728 20.1641 8.71268 18.0006 8.71493V8.71268Z" fill="black"/>
</g>
<defs>
<clipPath id="clip0_243_1902">
<rect width="36" height="36" fill="white"/>
</clipPath>
</defs>
</svg>
