<svg width="49" height="49" viewBox="0 0 49 49" fill="none" xmlns="http://www.w3.org/2000/svg">
<g clip-path="url(#clip0_194_984)">
<path d="M37.7552 0.935973C38.8717 1.06003 39.9556 1.35384 40.948 1.90229C43.4421 3.28648 44.9634 5.98304 44.9177 8.84283C45.8514 8.26173 47.3009 6.88407 48.2933 8.0985C48.6916 8.58819 48.6916 9.31946 48.2672 9.79609C47.7971 10.325 47.0528 10.8342 46.5239 11.4023C46.2954 11.6504 45.2311 12.8648 45.1985 13.1064C45.1724 13.2892 45.2768 13.7593 45.303 13.9748C45.6425 16.3775 46.3476 18.7215 46.9091 21.0785C46.9287 21.1569 46.8634 21.3528 46.8112 21.405C46.6676 21.5356 45.5707 21.6335 45.2834 21.7184C44.3889 21.973 44.3954 22.6194 43.8208 23.1418C42.6978 24.1603 41.7054 23.2724 40.7129 23.984C39.8576 24.6043 39.7074 24.9242 38.4734 24.761C37.7748 24.6696 37.5985 24.1864 36.6779 24.4607C35.9793 24.6696 35.7703 24.8655 34.9346 24.761C34.0532 24.6435 33.7006 23.6445 32.6951 23.6445C31.9312 23.6445 31.5721 23.8208 30.8408 23.3638C30.0703 22.8741 30.0442 21.9926 29.091 21.7184C28.6796 21.6009 28.1312 21.6074 27.746 21.4768C27.5958 21.4246 27.4587 21.294 27.4717 21.1243C28.0136 18.7476 28.7384 16.3971 29.0779 13.9748C29.1106 13.7593 29.2085 13.2892 29.1824 13.1064C29.1497 12.8648 28.092 11.6504 27.8569 11.4023C27.3281 10.8342 26.5772 10.325 26.1137 9.79609C25.3693 8.95383 25.9961 7.56311 27.1126 7.5827C27.8112 7.59575 28.8755 8.47067 29.4631 8.84283C29.4762 7.62187 29.6982 6.44009 30.214 5.33665C31.3566 2.90126 33.8507 1.13838 36.5538 0.975148L36.6257 0.929443H37.7422L37.7552 0.935973ZM46.1779 20.8957C45.6686 18.6105 44.9765 16.3514 44.65 14.027C44.6174 13.7854 44.4933 13.1652 44.5129 12.9758C44.526 12.8322 44.8002 12.4796 44.9047 12.3425C45.4074 11.6504 46.1191 10.8538 46.7394 10.2662C47.0201 9.9985 47.8493 9.4174 47.9277 9.08441C48.0387 8.62084 47.6339 8.18991 47.1638 8.27479C46.8634 8.32702 46.0669 8.84283 45.7796 9.03871C45.525 9.20847 44.97 9.70469 44.7676 9.79609C44.0559 10.103 44.2909 8.88201 44.2713 8.50331C44.0951 5.59129 42.4171 3.02532 39.6291 2.02635C34.9411 0.348345 30.4164 3.64559 30.1226 8.50331C30.0965 8.88201 30.3315 10.103 29.6264 9.79609C29.424 9.70469 28.869 9.20847 28.6143 9.03871C28.3009 8.82977 27.3934 8.22909 27.0539 8.26826C26.6229 8.3205 26.3487 8.74489 26.4923 9.15623C26.5968 9.45005 27.3673 9.99197 27.635 10.2466C27.9745 10.5731 28.3466 10.9648 28.66 11.3174C28.869 11.559 29.8614 12.7538 29.8745 12.9758C29.8941 13.2566 29.7439 13.9878 29.6982 14.3143C29.3587 16.5473 28.7057 18.7084 28.2161 20.9088C29.0257 21.0067 29.7961 21.1243 30.3576 21.7706C30.547 21.9861 30.6514 22.2538 30.8212 22.4693C31.6047 23.4356 32.4209 22.8218 33.3872 23.1091C34.1446 23.3376 34.4776 24.082 35.2676 24.1603C36.0054 24.2321 36.5016 23.6968 37.3569 23.7425C38.0164 23.7816 38.4342 24.2256 39.1198 24.1603C39.9098 24.082 40.2363 23.3376 41.0002 23.1091C41.9535 22.8218 42.7435 23.416 43.527 22.515C43.7164 22.293 43.8274 22.0122 44.0167 21.7902C44.5782 21.1243 45.3617 21.0133 46.1844 20.9088L46.1779 20.8957Z" fill="#E72E68" stroke="#E72E68" stroke-width="0.391752" stroke-miterlimit="10"/>
<path d="M36.9521 8.86246C39.048 8.50335 39.1068 13.0281 37.2655 13.1326C35.4243 13.237 35.3525 9.13668 36.9521 8.86246ZM37.037 9.50885C36.7105 9.60678 36.4755 10.3838 36.4494 10.6841C36.4102 11.1346 36.5473 12.5123 37.2133 12.4731C37.8793 12.4339 37.9772 11.1477 37.938 10.6841C37.8989 10.2597 37.605 9.33909 37.0435 9.50885H37.037Z" fill="#E72E68" stroke="#E72E68" stroke-width="0.391752" stroke-miterlimit="10"/>
<path d="M39.3222 5.08841C41.3659 4.74889 41.4834 8.2616 39.6813 8.37913C37.8793 8.49665 37.8009 5.34305 39.3222 5.08841ZM39.4136 5.74133C38.7542 5.91109 38.7085 7.53033 39.4724 7.71315C40.5628 7.97432 40.5889 5.44099 39.4136 5.74133Z" fill="#E72E68" stroke="#E72E68" stroke-width="0.391752" stroke-miterlimit="10"/>
<path d="M34.4841 5.08858C36.6126 4.65112 36.6517 8.5817 34.6669 8.37929C33.0672 8.21606 33.0672 5.38239 34.4841 5.08858ZM34.6212 5.7415C33.9421 5.8982 33.8834 7.46521 34.6016 7.69373C35.7115 8.05936 35.816 5.46074 34.6212 5.7415Z" fill="#E72E68" stroke="#E72E68" stroke-width="0.391752" stroke-miterlimit="10"/>
<path d="M2.99835 42.2047C1.99236 41.1987 1.34234 39.8316 1.13599 38.4284V18.7059C1.65703 15.363 4.2468 13.1704 7.5846 12.9538C11.949 12.6752 16.6127 13.1704 21.008 12.9589C23.0509 13.1653 23.0097 15.7138 21.2144 15.9046L7.208 15.9304C5.18571 16.2812 4.11267 17.7103 3.97338 19.7119C4.3087 25.5002 3.54003 31.7734 3.97853 37.5049C4.4222 43.2829 12.1605 40.559 15.8749 41.2657C17.598 42.4884 18.8465 44.2682 20.389 45.6972L20.781 45.7798L25.3724 41.3122C28.0499 40.9872 30.9389 41.4205 33.6164 41.2193C39.0487 40.8014 36.9748 34.1104 37.3256 30.3908C37.501 28.513 40.0959 28.3995 40.2816 30.592C40.4467 32.506 40.4777 37.541 40.0237 39.2899C39.4098 41.6681 37.0986 43.7988 34.6223 44.0567C32.0893 44.3198 29.2158 43.8452 26.6467 44.1135C24.4077 45.8984 21.916 50.6704 18.5679 47.9362C17.2266 46.8373 16.0607 45.1968 14.6884 44.0928C12.1193 43.871 9.21997 44.325 6.69211 44.0619C5.43334 43.9277 3.89599 43.0972 3.0035 42.2098L2.99835 42.2047Z" fill="#E72E68"/>
<path d="M20.6675 30.7158C21.8527 30.7158 22.8136 29.7549 22.8136 28.5697C22.8136 27.3844 21.8527 26.4236 20.6675 26.4236C19.4822 26.4236 18.5214 27.3844 18.5214 28.5697C18.5214 29.7549 19.4822 30.7158 20.6675 30.7158Z" fill="#E72E68"/>
<path d="M28.4626 30.7055C29.645 30.7055 30.6035 29.7469 30.6035 28.5645C30.6035 27.3821 29.645 26.4236 28.4626 26.4236C27.2802 26.4236 26.3217 27.3821 26.3217 28.5645C26.3217 29.7469 27.2802 30.7055 28.4626 30.7055Z" fill="#E72E68"/>
<path d="M12.862 30.7055C14.0444 30.7055 15.0029 29.7469 15.0029 28.5645C15.0029 27.3821 14.0444 26.4236 12.862 26.4236C11.6796 26.4236 10.7211 27.3821 10.7211 28.5645C10.7211 29.7469 11.6796 30.7055 12.862 30.7055Z" fill="#E72E68"/>
</g>
<defs>
<clipPath id="clip0_194_984">
<rect width="47.6194" height="48" fill="white" transform="translate(1.13599 0.76709)"/>
</clipPath>
</defs>
</svg>
