<svg width="24" height="25" viewBox="0 0 24 25" fill="none" xmlns="http://www.w3.org/2000/svg">
<path d="M16.4507 0.5C16.4418 3.55713 18.8706 6.21764 21.9188 6.50286C22.1238 6.52068 22.3957 6.44047 22.5516 6.57416V10.3978C20.9919 10.4513 19.4589 10.0413 18.064 9.37282L16.4552 8.37903C16.4641 10.7187 16.4418 13.0583 16.4552 15.3935C16.4686 17.9827 16.5042 19.8188 14.6994 21.891C9.91311 27.3769 0.790731 23.5845 1.48594 16.3338C1.89148 12.1135 5.94686 9.06532 10.1181 9.74271V13.6822C9.26693 13.4995 8.52715 13.4639 7.70271 13.7758C3.32646 15.4292 5.91121 22.154 10.3409 20.3535C12.8499 19.333 12.5335 16.8998 12.5647 14.6493C12.6316 9.93434 12.5112 5.21494 12.5647 0.504456H16.4597L16.4507 0.5Z" fill="white"/>
</svg>
